<?xml version="1.0" encoding="utf-8"?><svg viewBox="0 0 33 32" xmlns="http://www.w3.org/2000/svg" xmlns:xlink="http://www.w3.org/1999/xlink"><style>:root>svg{display:none}:root>svg:target{display:block}</style><svg viewBox="0 0 9 10" id="angle-right" xmlns="http://www.w3.org/2000/svg"><path fill-rule="evenodd" fill="#727272" d="M8.907 5.228 4.569 9.889a.283.283 0 0 1-.214.1.285.285 0 0 1-.214-.1l-.465-.5a.325.325 0 0 1-.093-.23c0-.087.03-.164.093-.23l3.658-3.931-3.658-3.93a.322.322 0 0 1-.093-.23c0-.087.03-.163.093-.23l.465-.5a.288.288 0 0 1 .214-.1c.081 0 .152.034.214.1l4.338 4.66c.062.067-.807.144-.807.23 0 .087.869.164.807.23Zm-3.482-.23c0 .087-.03.164-.093.23L.995 9.889a.285.285 0 0 1-.214.1.283.283 0 0 1-.214-.1l-.466-.5a.33.33 0 0 1 0-.46l3.658-3.931-3.658-3.93a.33.33 0 0 1 0-.46l.466-.5a.287.287 0 0 1 .214-.1c.08 0 .152.034.214.1l4.337 4.66a.325.325 0 0 1 .093.23Z"/></svg><svg fill="none" viewBox="0 0 24 24" id="cart" xmlns="http://www.w3.org/2000/svg"><path d="M17 17H6.5l-2-14H2" stroke="#fff" stroke-width="1.5" stroke-linecap="round" stroke-linejoin="round"/><path d="M4.786 5H21l-3 9H6.07M9 21a2 2 0 1 0 0-4 2 2 0 0 0 0 4ZM17 21a2 2 0 1 0 0-4 2 2 0 0 0 0 4Z" stroke="#fff" stroke-width="1.5" stroke-linecap="round" stroke-linejoin="round"/><circle cx="19" cy="5" r="3" fill="#F57520"/></svg><svg fill="none" viewBox="0 0 24 24" id="heart" xmlns="http://www.w3.org/2000/svg"><path d="M4.331 12.047 12 20l7.669-7.953A4.804 4.804 0 0 0 21 8.714C21 6.111 18.965 4 16.454 4a4.465 4.465 0 0 0-3.214 1.38L12 6.668 10.76 5.38A4.465 4.465 0 0 0 7.546 4C5.036 4 3 6.11 3 8.714c0 1.25.479 2.45 1.331 3.333Z" stroke="#fff" stroke-width="1.5" stroke-linecap="round" stroke-linejoin="round"/><circle cx="19" cy="5" r="3" fill="#F57520"/></svg><svg fill="none" viewBox="0 0 33 32" id="mail" xmlns="http://www.w3.org/2000/svg"><g stroke="#4C4C4C" stroke-width="1.5" stroke-linecap="round" stroke-linejoin="round"><path d="M28.667 6.667H7.333A1.33 1.33 0 0 0 6 8v16c0 .737.597 1.334 1.333 1.334h21.334c.736 0 1.333-.597 1.333-1.334V8a1.33 1.33 0 0 0-1.333-1.333Z"/><path d="m6.39 7.058 9.724 9.723a2.666 2.666 0 0 0 3.772 0l9.724-9.723"/></g></svg><svg fill="none" viewBox="0 0 33 32" id="navigation" xmlns="http://www.w3.org/2000/svg"><g clip-path="url(#ea)"><path d="m21.404 29.815 3.25-24.297L5.238 20.481l10.083 1.203 6.083 8.13Z" stroke="#4C4C4C" stroke-width="1.5" stroke-linecap="round" stroke-linejoin="round"/></g><defs><clipPath id="ea"><path fill="#fff" transform="translate(.667)" d="M0 0h32v32H0z"/></clipPath></defs></svg><svg fill="none" viewBox="0 0 33 32" id="phone" xmlns="http://www.w3.org/2000/svg"><path d="M19.333 4H8.667A2.667 2.667 0 0 0 6 6.667v18.666A2.667 2.667 0 0 0 8.667 28h10.666A2.667 2.667 0 0 0 22 25.333V6.667A2.667 2.667 0 0 0 19.333 4ZM14 24.013V24" stroke="#4C4C4C" stroke-width="1.5" stroke-linecap="round" stroke-linejoin="round"/></svg><svg fill="none" viewBox="0 0 24 24" id="search" xmlns="http://www.w3.org/2000/svg"><path d="M16 10.5a7.5 7.5 0 1 1-15 0 7.5 7.5 0 0 1 15 0ZM18 20l-4.197-4.197" stroke="#fff" stroke-width="1.5" stroke-linecap="round" stroke-linejoin="round"/></svg><svg fill="none" viewBox="0 0 24 24" id="user" xmlns="http://www.w3.org/2000/svg"><g stroke="#fff" stroke-width="1.5" stroke-linecap="round" stroke-linejoin="round"><path d="M14 15H6a4 4 0 0 0-4 4v2h16v-2a4 4 0 0 0-4-4ZM10 11a4 4 0 1 0 0-8 4 4 0 0 0 0 8Z"/></g></svg></svg>