<?xml version="1.0" encoding="utf-8"?><svg viewBox="0 0 274 138" xmlns="http://www.w3.org/2000/svg" xmlns:xlink="http://www.w3.org/1999/xlink"><style>:root>svg{display:none}:root>svg:target{display:block}</style><svg viewBox="0 0 9 10" id="angle-right" xmlns="http://www.w3.org/2000/svg"><path fill-rule="evenodd" fill="#727272" d="M8.907 5.228 4.569 9.889a.283.283 0 0 1-.214.1.285.285 0 0 1-.214-.1l-.465-.5a.325.325 0 0 1-.093-.23c0-.087.03-.164.093-.23l3.658-3.931-3.658-3.93a.322.322 0 0 1-.093-.23c0-.087.03-.163.093-.23l.465-.5a.288.288 0 0 1 .214-.1c.081 0 .152.034.214.1l4.338 4.66c.062.067-.807.144-.807.23 0 .087.869.164.807.23Zm-3.482-.23c0 .087-.03.164-.093.23L.995 9.889a.285.285 0 0 1-.214.1.283.283 0 0 1-.214-.1l-.466-.5a.33.33 0 0 1 0-.46l3.658-3.931-3.658-3.93a.33.33 0 0 1 0-.46l.466-.5a.287.287 0 0 1 .214-.1c.08 0 .152.034.214.1l4.337 4.66a.325.325 0 0 1 .093.23Z"/></svg><svg fill="none" viewBox="0 0 24 15" id="arrow-bottom" xmlns="http://www.w3.org/2000/svg"><g clip-path="url(#ba)"><path d="m2.902 5.375 8.4 8.425c.1.1.208.17.325.212.116.042.241.063.375.063a1.1 1.1 0 0 0 .375-.063.873.873 0 0 0 .325-.212l8.425-8.425c.233-.233.35-.525.35-.875s-.125-.65-.375-.9a1.2 1.2 0 0 0-.875-.375 1.2 1.2 0 0 0-.875.375l-7.35 7.35-7.35-7.35a1.171 1.171 0 0 0-.862-.35c-.342 0-.638.125-.888.375a1.2 1.2 0 0 0-.375.875c0 .333.125.625.375.875Z" fill="currentColor"/></g><defs><clipPath id="ba"><path fill="#fff" transform="matrix(0 -1 -1 0 24 14.5)" d="M0 0h14v24H0z"/></clipPath></defs></svg><svg viewBox="0 0 24 24" fill="none" id="arrow-down" xmlns="http://www.w3.org/2000/svg"><path d="M12 6v12m0 0 5-5m-5 5-5-5" stroke="#fff" stroke-linecap="round" stroke-linejoin="round"/></svg><svg fill="currentColor" viewBox="0 0 14 24" id="arrow-next" xmlns="http://www.w3.org/2000/svg"><path d="m4.875 21.1 8.425-8.4c.1-.1.17-.208.212-.325a1.1 1.1 0 0 0 .063-.375 1.1 1.1 0 0 0-.063-.375.871.871 0 0 0-.212-.325L4.875 2.875A1.187 1.187 0 0 0 4 2.525c-.35 0-.65.125-.9.375a1.2 1.2 0 0 0-.375.875c0 .334.125.625.375.875L10.45 12 3.1 19.35c-.233.234-.35.521-.35.862 0 .342.125.638.375.888s.542.375.875.375a1.2 1.2 0 0 0 .875-.375Z"/></svg><svg fill="currentColor" viewBox="0 0 14 24" id="arrow-prev" xmlns="http://www.w3.org/2000/svg"><path d="M9.125 21.1.7 12.7a.871.871 0 0 1-.212-.325A1.1 1.1 0 0 1 .425 12a1.1 1.1 0 0 1 .063-.375A.871.871 0 0 1 .7 11.3l8.425-8.425c.233-.233.525-.35.875-.35s.65.125.9.375.375.542.375.875a1.2 1.2 0 0 1-.375.875L3.55 12l7.35 7.35c.233.234.35.521.35.862 0 .342-.125.638-.375.888a1.2 1.2 0 0 1-.875.375 1.2 1.2 0 0 1-.875-.375Z"/></svg><svg fill="none" viewBox="0 0 274 40" id="brand" xmlns="http://www.w3.org/2000/svg"><path d="M7.164 3.695c-.36.22-.172-.07-3.961 6.032C.054 14.789.047 14.797.015 15.273c-.015.383.008.524.157.75.101.157 4.422 4.79 9.609 10.29 6.734 7.14 9.508 10.023 9.68 10.085.32.11.758.11 1.078 0 .172-.062 2.945-2.945 9.68-10.086 5.187-5.5 9.507-10.132 9.609-10.289.148-.226.172-.367.156-.75-.031-.476-.039-.492-2.867-5.039-4.188-6.726-3.938-6.343-4.29-6.546l-.312-.172H7.461l-.297.18Zm5.336 2.57a691.14 691.14 0 0 1-.766 3.891l-.765 3.79-3.61.023-3.61.015.376-.601c.21-.336 1.304-2.094 2.43-3.914l2.054-3.297h1.946c1.507 0 1.945.023 1.945.094Zm12.218.04c.07.234 1.61 7.492 1.61 7.586 0 .07-1.586.093-6.29.093-3.46 0-6.288-.023-6.288-.062-.008-.031.336-1.79.758-3.906l.765-3.844h4.703c4.407 0 4.704.008 4.742.133Zm9.094 3.75 2.414 3.89-3.515.024c-1.938.008-3.531 0-3.555-.024-.055-.047-1.648-7.437-1.656-7.64 0-.125.14-.133 1.945-.133h1.945l2.422 3.883ZM13.64 22.89l2.453 6.132-.46-.468C15.187 28.094 5.07 17.344 4.695 16.93l-.195-.211 3.344.015 3.343.024 2.453 6.133Zm12.266-6.04c-.414 1.11-5.867 14.555-5.898 14.555-.032 0-1.375-3.304-2.993-7.343l-2.937-7.344h5.937c5.625 0 5.938.008 5.891.133Zm9.398.079c-.39.437-10.5 11.172-10.906 11.586l-.422.43.164-.43c.336-.868 4.696-11.672 4.735-11.735.023-.031 1.523-.062 3.328-.062h3.289l-.188.21Z" fill="#4C4C4C"/><path d="M57.598 23V8.455h9.12v1.889h-6.925v4.432h6.449v1.882h-6.45v4.453h7.01V23h-9.204Zm12.08 0V12.09h4.525c1.23 0 2.206.264 2.926.79.72.52 1.08 1.228 1.08 2.123 0 .639-.204 1.146-.612 1.52-.407.374-.947.625-1.619.753a3.43 3.43 0 0 1 1.342.44c.408.232.734.544.98.937.251.393.377.862.377 1.407 0 .577-.15 1.089-.448 1.534-.298.44-.731.786-1.3 1.037-.563.246-1.242.369-2.038.369h-5.213Zm1.996-1.776h3.217c.526 0 .938-.125 1.236-.376.299-.25.448-.592.448-1.023 0-.506-.15-.904-.448-1.193-.298-.294-.71-.44-1.236-.44h-3.217v3.032Zm0-4.588h2.55c.397 0 .738-.056 1.022-.17.29-.114.51-.275.661-.483.156-.213.234-.464.234-.753 0-.421-.172-.75-.518-.987-.346-.237-.82-.355-1.42-.355h-2.529v2.748Zm9.532 10.455v-15h2.074v1.768h.178c.123-.227.3-.49.533-.788.232-.298.553-.559.966-.781.411-.227.956-.341 1.633-.341.88 0 1.667.222 2.358.668.691.445 1.233 1.086 1.626 1.924.398.838.597 1.847.597 3.026 0 1.179-.197 2.19-.59 3.032-.392.838-.932 1.485-1.619 1.94-.686.45-1.47.674-2.35.674-.664 0-1.206-.111-1.627-.334-.417-.222-.743-.483-.98-.781a5.905 5.905 0 0 1-.547-.795h-.128v5.788h-2.123Zm2.081-9.546c0 .767.112 1.44.334 2.017.223.578.545 1.03.966 1.357.421.322.938.483 1.548.483.635 0 1.165-.168 1.591-.504.427-.341.749-.803.966-1.385.223-.583.334-1.238.334-1.968 0-.72-.109-1.366-.327-1.939-.213-.572-.535-1.025-.965-1.356-.427-.331-.96-.497-1.599-.497-.615 0-1.136.159-1.562.476-.421.317-.741.76-.959 1.328-.218.568-.327 1.23-.327 1.989Zm15.058 5.675c-1.022 0-1.915-.234-2.677-.703-.763-.469-1.354-1.125-1.776-1.967-.421-.843-.632-1.828-.632-2.955 0-1.131.21-2.121.632-2.969.422-.847 1.014-1.505 1.776-1.974.762-.469 1.655-.703 2.677-.703 1.023 0 1.916.234 2.678.703s1.354 1.127 1.776 1.974c.421.848.632 1.838.632 2.97 0 1.126-.211 2.11-.632 2.954-.422.842-1.014 1.498-1.776 1.967-.762.469-1.655.703-2.678.703Zm.008-1.782c.662 0 1.212-.176 1.647-.526.436-.35.758-.817.966-1.4.213-.582.32-1.223.32-1.924 0-.696-.107-1.335-.32-1.918-.208-.587-.53-1.058-.966-1.413-.435-.355-.985-.533-1.647-.533-.668 0-1.222.178-1.662.533-.436.355-.76.826-.974 1.414a5.657 5.657 0 0 0-.312 1.917c0 .7.104 1.342.313 1.925.213.582.537 1.049.973 1.399.44.35.994.526 1.662.526ZM106 23V12.09h8.899V23h-2.081v-9.077h-4.751V23h-2.067Zm16.64.22c-1.075 0-2-.23-2.777-.689a4.676 4.676 0 0 1-1.79-1.953c-.416-.843-.625-1.83-.625-2.962 0-1.117.209-2.102.625-2.954.422-.852 1.009-1.518 1.762-1.996.757-.478 1.643-.717 2.656-.717a5.35 5.35 0 0 1 1.79.305 4.337 4.337 0 0 1 1.555.96c.459.435.821 1 1.087 1.697.265.69.397 1.531.397 2.52v.754h-8.671v-1.591h6.59c0-.559-.113-1.054-.34-1.485a2.583 2.583 0 0 0-.959-1.03c-.408-.25-.886-.376-1.435-.376-.597 0-1.117.147-1.562.44a2.947 2.947 0 0 0-1.023 1.137 3.277 3.277 0 0 0-.355 1.513v1.242c0 .73.128 1.35.383 1.861.261.512.623.902 1.087 1.172.464.265 1.006.398 1.626.398.403 0 .77-.057 1.101-.17a2.38 2.38 0 0 0 .86-.526c.241-.232.426-.519.553-.86l2.01.363a3.635 3.635 0 0 1-.866 1.555c-.412.44-.93.784-1.555 1.03-.621.241-1.329.362-2.124.362Zm9.318-3.196 4.808-7.933h2.287V23h-2.081v-7.94L132.186 23h-2.308V12.09h2.081v7.934Zm3.899-11.626h1.747c0 .8-.284 1.451-.852 1.953-.564.497-1.326.746-2.287.746-.957 0-1.717-.249-2.28-.746-.564-.502-.845-1.153-.845-1.953h1.74c0 .355.104.67.312.944.209.27.566.405 1.073.405.497 0 .852-.135 1.065-.405.218-.27.327-.584.327-.944Zm10.846 14.822c-1.056 0-1.965-.239-2.727-.717a4.744 4.744 0 0 1-1.747-1.996c-.408-.847-.611-1.818-.611-2.912 0-1.108.208-2.085.625-2.933.416-.852 1.004-1.518 1.761-1.996.758-.478 1.65-.717 2.678-.717.828 0 1.567.154 2.216.462a3.98 3.98 0 0 1 1.569 1.278c.403.55.642 1.19.718 1.925h-2.067a2.48 2.48 0 0 0-.781-1.321c-.403-.37-.943-.554-1.62-.554-.592 0-1.11.156-1.555.468-.441.308-.784.748-1.03 1.321-.246.569-.369 1.24-.369 2.018 0 .795.12 1.482.362 2.06.241.577.582 1.024 1.023 1.341.445.318.968.476 1.569.476a2.64 2.64 0 0 0 1.094-.22 2.24 2.24 0 0 0 .831-.646c.227-.28.386-.616.476-1.009h2.067a4.024 4.024 0 0 1-.689 1.89 3.97 3.97 0 0 1-1.542 1.306c-.639.318-1.389.476-2.251.476Zm6.952-.22V12.09h2.124v4.575h1.023l3.601-4.574h2.627l-4.225 5.305L163.081 23h-2.635l-3.288-4.36h-1.378V23h-2.124Zm13.356-2.976 4.808-7.933h2.287V23h-2.081v-7.94L167.239 23h-2.308V12.09h2.081v7.934Zm14.852 3.196c-1.075 0-2.001-.23-2.777-.689a4.67 4.67 0 0 1-1.79-1.953c-.417-.843-.625-1.83-.625-2.962 0-1.117.208-2.102.625-2.954.421-.852 1.008-1.518 1.761-1.996.758-.478 1.643-.717 2.656-.717.616 0 1.213.102 1.79.305a4.34 4.34 0 0 1 1.556.96c.459.435.821 1 1.086 1.697.265.69.398 1.531.398 2.52v.754h-8.672v-1.591h6.591c0-.559-.114-1.054-.341-1.485a2.576 2.576 0 0 0-.959-1.03c-.407-.25-.885-.376-1.434-.376-.597 0-1.118.147-1.563.44-.44.29-.781.668-1.023 1.137a3.29 3.29 0 0 0-.355 1.513v1.242c0 .73.128 1.35.384 1.861.26.512.623.902 1.087 1.172.464.265 1.006.398 1.626.398.402 0 .769-.057 1.101-.17a2.279 2.279 0 0 0 1.413-1.385l2.01.362a3.646 3.646 0 0 1-.866 1.555c-.412.44-.931.784-1.556 1.03-.62.241-1.328.362-2.123.362Zm21.145-15.192.881 1.343a2.894 2.894 0 0 1-1.115.639 6.372 6.372 0 0 1-1.428.234c-.539.029-1.157.055-1.853.078-.786.024-1.433.195-1.939.512-.507.312-.897.776-1.172 1.392-.27.61-.445 1.378-.526 2.301h.135c.355-.677.848-1.184 1.478-1.52.634-.336 1.347-.504 2.137-.504.881 0 1.665.201 2.351.604.687.402 1.227.992 1.62 1.768.397.772.596 1.716.596 2.834 0 1.131-.208 2.11-.625 2.933-.412.824-.994 1.46-1.747 1.91-.748.446-1.631.668-2.649.668s-1.906-.23-2.664-.689c-.752-.464-1.337-1.15-1.754-2.06-.412-.909-.618-2.03-.618-3.366v-1.08c0-2.495.445-4.372 1.336-5.631.89-1.26 2.22-1.906 3.991-1.94a33.824 33.824 0 0 1 1.534-.007c.45.005.843-.016 1.179-.063.341-.053.625-.17.852-.356Zm-3.849 13.41c.592 0 1.101-.15 1.527-.448.431-.303.762-.731.994-1.285.232-.554.348-1.208.348-1.96 0-.74-.116-1.367-.348-1.883-.232-.516-.563-.909-.994-1.179-.431-.274-.947-.412-1.548-.412-.445 0-.843.078-1.194.235-.35.151-.651.376-.902.674a3.243 3.243 0 0 0-.575 1.094 5.3 5.3 0 0 0-.213 1.47c0 1.127.258 2.024.774 2.692.521.668 1.231 1.002 2.131 1.002Zm7.586 5.653v-15h2.074v1.768h.178c.123-.227.3-.49.532-.788.232-.298.554-.559.966-.781.412-.227.957-.341 1.634-.341.881 0 1.667.222 2.358.668.691.445 1.233 1.086 1.626 1.924.398.838.597 1.847.597 3.026 0 1.179-.197 2.19-.59 3.032-.393.838-.932 1.485-1.619 1.94-.687.45-1.47.674-2.351.674-.663 0-1.205-.111-1.626-.334-.417-.222-.744-.483-.98-.781a5.907 5.907 0 0 1-.547-.795h-.128v5.788h-2.124Zm2.081-9.546c0 .767.112 1.44.334 2.017.223.578.545 1.03.966 1.357.421.322.937.483 1.548.483.635 0 1.165-.168 1.591-.504.426-.341.748-.803.966-1.385.223-.583.334-1.238.334-1.968 0-.72-.109-1.366-.327-1.939-.213-.572-.535-1.025-.966-1.356-.426-.331-.959-.497-1.598-.497-.615 0-1.136.159-1.562.476-.422.317-.741.76-.959 1.328-.218.568-.327 1.23-.327 1.989Zm15.165 5.675c-1.075 0-2.001-.23-2.777-.689a4.67 4.67 0 0 1-1.79-1.953c-.417-.843-.625-1.83-.625-2.962 0-1.117.208-2.102.625-2.954.421-.852 1.009-1.518 1.761-1.996.758-.478 1.643-.717 2.657-.717a5.34 5.34 0 0 1 1.789.305 4.332 4.332 0 0 1 1.556.96c.459.435.821 1 1.086 1.697.266.69.398 1.531.398 2.52v.754H220v-1.591h6.591c0-.559-.113-1.054-.341-1.485a2.576 2.576 0 0 0-.959-1.03c-.407-.25-.885-.376-1.434-.376-.597 0-1.118.147-1.563.44-.44.29-.781.668-1.022 1.137a3.278 3.278 0 0 0-.356 1.513v1.242c0 .73.128 1.35.384 1.861.26.512.623.902 1.087 1.172.464.265 1.006.398 1.626.398a3.38 3.38 0 0 0 1.101-.17 2.279 2.279 0 0 0 1.413-1.385l2.01.362a3.646 3.646 0 0 1-.866 1.555c-.412.44-.931.784-1.556 1.03-.62.241-1.328.362-2.123.362Zm14.63-6.59v1.839h-5.909v-1.84h5.909Zm-5.313-4.54V23h-2.081V12.09h2.081Zm6.797 0V23h-2.074V12.09h2.074Zm1.976 14.056V21.16h.888c.227-.208.419-.456.575-.745.161-.29.296-.632.405-1.03.113-.398.208-.862.284-1.392.075-.535.142-1.146.199-1.832l.341-4.07h7.414v9.07h1.676v4.985h-2.073V23h-7.607v3.146h-2.102Zm3.16-4.986h4.872v-7.25h-3.437l-.227 2.25a31.037 31.037 0 0 1-.412 2.983c-.166.838-.431 1.51-.796 2.017Zm12.496-5.32h3.168c1.335 0 2.362.332 3.082.995.72.663 1.08 1.518 1.08 2.564 0 .682-.161 1.295-.483 1.84-.322.544-.793.975-1.414 1.292-.62.313-1.375.469-2.265.469h-4.766V12.09h2.081v9.078h2.685c.61 0 1.112-.159 1.505-.476a1.52 1.52 0 0 0 .59-1.229c0-.526-.197-.954-.59-1.285-.393-.337-.895-.505-1.505-.505h-3.168v-1.832Zm8.878 7.16V12.09h2.123V23h-2.123Z" fill="#fff"/></svg><svg fill="none" viewBox="0 0 32 32" id="calendar" xmlns="http://www.w3.org/2000/svg"><path d="M5.333 14.667h21.334M5.333 9.334v16A2.667 2.667 0 0 0 8 28h16a2.667 2.667 0 0 0 2.667-2.666v-16A2.667 2.667 0 0 0 24 6.667H8a2.667 2.667 0 0 0-2.667 2.667ZM20 4v5.333M12 4v5.333" stroke="#F57520" stroke-width="1.5" stroke-linecap="round" stroke-linejoin="round"/></svg><svg fill="none" viewBox="0 0 24 24" id="cart" xmlns="http://www.w3.org/2000/svg"><path d="M17 17H6.5l-2-14H2" stroke="#fff" stroke-width="1.5" stroke-linecap="round" stroke-linejoin="round"/><path d="M4.786 5H21l-3 9H6.07M9 21a2 2 0 1 0 0-4 2 2 0 0 0 0 4ZM17 21a2 2 0 1 0 0-4 2 2 0 0 0 0 4Z" stroke="#fff" stroke-width="1.5" stroke-linecap="round" stroke-linejoin="round"/><circle cx="19" cy="5" r="3" fill="#F57520"/></svg><svg fill="none" viewBox="0 0 72 71" id="computer" xmlns="http://www.w3.org/2000/svg"><g fill="#4C4C4C"><path d="M24.407 1.262c-.86.208-2.122.943-2.732 1.609-.305.332-.763 1.026-.998 1.539l-.444.929-.042 3.425-.055 3.44h-.749c-.624 0-.818.055-1.096.346l-.346.333v18.609l.346.333c.278.291.472.347 1.096.347h.763l.041 4.548.042 4.549.513 1.054c.624 1.262 1.442 2.052 2.718 2.648.86.402 1.068.444 2.704.486l1.761.055v.777c0 1.178.25 1.816 1.04 2.593.652.652 1.415 1.04 2.066 1.04.195 0 .222.208.209 1.622v1.637l-.916.582-.915.596h-7.46l-.333.347c-.292.277-.347.471-.347 1.11v.762H6.852V58.797h14.42V63.234H6.853v2.22h14.42v.762c0 .638.056.832.348 1.11.319.332.402.346 2.218.346h1.872v.763c0 .638.056.832.347 1.109l.333.347h7.516l.333-.347c.346-.333.346-.36.346-2.981s0-2.65-.346-2.982c-.278-.291-.472-.347-1.11-.347h-.762v-.776c0-1.207.25-1.844 1.04-2.621 1.4-1.415 3.175-1.415 4.576 0 .79.776 1.04 1.414 1.04 2.62v.777h-.763c-.638 0-.832.056-1.11.347-.346.333-.346.36-.346 2.981s0 2.65.347 2.982l.333.347H45l.333-.347c.29-.277.346-.471.346-1.11v-.762h1.872c1.817 0 1.9-.014 2.219-.347.291-.277.347-.471.347-1.11v-.762h14.422V63.234H50.117V58.796h14.422v-2.218H50.117v-.763c0-.637-.056-.832-.347-1.109l-.333-.347H42.032l-.943-.596-.943-.582-.014-1.637c0-1.414.028-1.622.222-1.622.652 0 1.415-.388 2.066-1.04.79-.777 1.04-1.415 1.04-2.593v-.777l1.775-.055c1.623-.042 1.83-.084 2.69-.486 1.277-.596 2.095-1.386 2.719-2.648l.513-1.054.041-4.549.042-4.548h.763c.624 0 .818-.056 1.095-.347l.347-.333V12.883l-.347-.333c-.277-.291-.471-.347-1.095-.347h-.75l-.055-3.439-.041-3.439-.513-1.054c-.624-1.262-1.429-2.038-2.718-2.649l-.93-.443-11.024-.028c-6.365-.014-11.246.042-11.565.11Zm22.298 2.233c.763.221 1.914 1.372 2.136 2.135.11.375.166 1.623.166 3.578v2.995H46.79V9.222c0-2.996 0-2.996-.347-3.328l-.333-.347H25.281l-.333.347c-.347.332-.347.332-.347 3.328v2.981H22.382V9.208c0-1.955.056-3.204.167-3.578.208-.707 1.373-1.9 2.052-2.122.721-.221 21.328-.235 22.104-.013Zm-2.135 6.614v2.344l-.416.166c-.583.236-1.442 1.248-1.637 1.914-.235.763-.235 14.546 0 15.31.195.665 1.054 1.677 1.637 1.913l.416.166V36.61H26.82V31.922l.416-.166c.582-.236 1.442-1.248 1.636-1.914.236-.762.236-14.546 0-15.31-.194-.665-1.054-1.677-1.636-1.913l-.416-.166V7.766h17.75v2.343Zm-18.097 4.66.347.332v14.173l-.347.332c-.333.347-.333.347-3.328.347h-2.981V14.422h2.981c2.995 0 2.995 0 3.328.347Zm24.753 7.418v7.766h-2.981c-2.996 0-2.996 0-3.328-.347l-.347-.332V15.1l.346-.332c.333-.347.333-.347 3.329-.347h2.981v7.765ZM24.601 35.154c0 2.996 0 2.996.347 3.328l.333.347h20.828l.333-.347c.347-.332.347-.332.347-3.328v-2.981H49.008v4.105c0 2.828-.056 4.298-.167 4.687-.222.762-1.373 1.913-2.136 2.135-.818.236-21.203.236-22.02 0-.763-.222-1.914-1.373-2.136-2.135-.111-.389-.167-1.858-.167-4.687v-4.105h2.22v2.981Zm16.64 11.094c0 .638-.055.832-.346 1.11l-.333.346h-9.735l-.332-.347c-.292-.277-.347-.471-.347-1.109v-.763h11.094v.763Zm-3.327 4.91v1.247l-.514-.097c-.29-.055-1.053-.097-1.705-.097-.652 0-1.415.042-1.692.097l-.527.097v-2.482h4.438v1.234Zm-.75 3.355c2.247.402 4.452 2.094 5.464 4.202.721 1.525.832 2.26.832 5.865v3.093H39.022V65.453h.764c.651 0 .832-.055 1.137-.36.346-.347.346-.361.291-2.316-.042-1.858-.07-2.025-.485-2.898-.61-1.29-1.387-2.094-2.649-2.718-.998-.486-1.123-.514-2.385-.514-1.262 0-1.387.028-2.385.514-1.262.624-2.039 1.428-2.649 2.718-.416.873-.444 1.04-.485 2.898-.056 1.955-.056 1.969.29 2.316.306.305.486.36 1.138.36h.763V67.672H27.929v-3.093c0-1.705.07-3.466.153-3.924.319-1.761 1.442-3.536 2.912-4.66 1.816-1.386 3.938-1.885 6.17-1.483Zm-10.358 3.134c-.832 1.664-.985 2.413-1.054 5.283l-.07 2.524h-2.19v-8.875h3.855l-.541 1.068Zm21.092 3.37v4.437h-2.191l-.07-2.524c-.069-2.856-.207-3.577-1.053-5.283l-.527-1.068h3.841v4.438Z"/><path d="M32.367 41.047v1.11h6.656v-2.22h-6.656v1.11Z"/></g></svg><svg fill="none" viewBox="0 0 40 40" id="customization" xmlns="http://www.w3.org/2000/svg"><g clip-path="url(#ja)" fill="#4C4C4C"><path d="M17.734.117c-1.047.133-1.203.18-1.555.438-.406.289-.507.5-1.171 2.375a73.302 73.302 0 0 1-.57 1.562c-.016.008-.352.141-.75.305l-.727.297-.797-.367C9.562 3.508 9.68 3.555 9.18 3.563c-.579 0-.797.11-1.758.875-.946.758-2.227 2.039-2.985 2.984-.695.875-.836 1.133-.898 1.633-.047.43.117.875 1.031 2.789l.531 1.11-.304.726c-.164.406-.297.742-.305.758-.008.007-.71.265-1.562.57-.852.297-1.68.617-1.844.695a1.775 1.775 0 0 0-.766.883c-.297.781-.414 3.961-.203 5.656.133 1.055.195 1.274.477 1.649.257.336.539.469 2.351 1.11.844.296 1.54.554 1.547.562.008.015.11.265.227.57.125.297.25.633.296.742.07.172-.015.399-.625 1.68-.382.812-.742 1.617-.796 1.789-.11.351-.063.875.125 1.242.57 1.094 3.25 3.797 4.648 4.68.297.187.93.258 1.29.14.171-.054.976-.414 1.788-.796 1.281-.61 1.508-.696 1.68-.625.11.046.445.171.742.296.305.118.555.22.57.227.008.008.266.703.563 1.547.64 1.812.773 2.094 1.11 2.351.374.282.57.336 1.6.477 1.665.219 4.907.102 5.712-.203a1.79 1.79 0 0 0 .875-.766c.078-.164.398-.992.695-1.843.305-.852.563-1.555.57-1.563.016-.008.274-.11.57-.227.305-.125.633-.25.743-.296.172-.07.398.015 1.68.625.82.382 1.617.742 1.789.796.359.118.992.047 1.289-.14 1.398-.883 4.078-3.586 4.648-4.68.188-.367.235-.89.125-1.242-.055-.172-.414-.977-.797-1.79-.61-1.28-.695-1.507-.625-1.679.047-.11.172-.445.297-.742.117-.305.219-.555.227-.57.008-.008.703-.266 1.546-.563 1.813-.64 2.094-.773 2.352-1.11.281-.374.344-.593.477-1.648.148-1.218.148-3.273 0-4.5-.227-1.812-.242-1.828-3.125-2.851l-1.258-.446-.227-.593a33.732 33.732 0 0 1-.297-.758c-.054-.125.094-.508.633-1.649.383-.82.742-1.617.797-1.789.11-.351.063-.875-.125-1.242-.414-.804-2.375-2.914-3.703-3.976-.961-.766-1.18-.875-1.758-.875-.5-.008-.383-.055-2.984 1.164l-.797.367-.727-.297c-.398-.164-.734-.297-.75-.305-.008-.007-.265-.71-.57-1.562-.297-.852-.617-1.68-.695-1.844a1.79 1.79 0 0 0-.875-.765c-.774-.29-4.094-.415-5.688-.204Zm3.242 3.399h.493l.57 1.617c.726 2.055.797 2.148 2.062 2.602.477.164 1.211.468 1.641.671.688.329.844.375 1.29.375.476 0 .593-.039 2.015-.718l1.515-.72.54.478c.296.265.773.734 1.046 1.046l.508.57-.719 1.508c-.68 1.43-.718 1.547-.718 2.024 0 .445.046.601.39 1.328.219.453.516 1.172.664 1.602.219.64.328.843.617 1.14.329.328.461.39 1.977.922l1.617.57.016.602c.016.578-.016 2.297-.047 2.328-.008.008-.75.281-1.656.602-1.992.718-2.102.804-2.531 2.047-.149.43-.438 1.14-.657 1.593-.344.727-.39.883-.39 1.328 0 .477.039.594.718 2.024l.727 1.515-.219.243a18.455 18.455 0 0 1-1.437 1.46l-.446.383-1.508-.718c-1.437-.68-1.538-.72-2.023-.72-.445.009-.61.056-1.328.392-.453.218-1.172.515-1.602.664-.64.218-.843.328-1.14.617-.328.328-.39.46-.922 1.96l-.57 1.61-.735.04c-.406.023-1.062.023-1.469 0l-.734-.04-.57-1.61c-.531-1.5-.594-1.632-.922-1.96-.297-.29-.5-.399-1.14-.617a17.902 17.902 0 0 1-1.602-.664c-.727-.344-.875-.391-1.328-.391-.477 0-.594.047-2.024.719l-1.508.718-.445-.382a18.44 18.44 0 0 1-1.437-1.461l-.22-.242.727-1.516c.68-1.43.72-1.547.72-2.024 0-.445-.048-.601-.392-1.328a17.649 17.649 0 0 1-.656-1.593c-.43-1.243-.539-1.329-2.531-2.047a66.527 66.527 0 0 1-1.656-.602c-.032-.031-.063-1.75-.047-2.328l.015-.602 1.625-.57c1.508-.531 1.641-.594 1.97-.922.288-.297.398-.5.616-1.14a17.9 17.9 0 0 1 .664-1.602c.344-.727.391-.883.391-1.328 0-.477-.039-.594-.719-2.024l-.718-1.507.507-.57c.274-.313.75-.782 1.047-1.047l.54-.477 1.515.719c1.422.68 1.539.718 2.016.718.445.008.601-.039 1.289-.375.43-.203 1.172-.507 1.64-.68 1.258-.445 1.336-.538 2.063-2.585l.57-1.617.64-.032c.345-.015.79-.015.977 0 .188.008.563.024.828.024Z"/><path d="M18.367 11.805c-3.219.68-5.649 3.203-6.219 6.445-.601 3.438 1.164 6.922 4.29 8.469.437.218 1.14.484 1.57.601.687.18.93.203 1.992.203 1.062 0 1.304-.023 1.992-.203 4.906-1.304 7.39-6.742 5.133-11.265a7.94 7.94 0 0 0-8.758-4.25Zm2.687 3.468c1.133.29 2.274 1.157 2.836 2.157 1.235 2.187.328 5.054-1.953 6.156-3.414 1.648-7.172-1.43-6.234-5.102.21-.82.539-1.382 1.21-2.047.868-.859 1.837-1.265 3.048-1.273.351-.008.843.047 1.093.11Z"/></g><defs><clipPath id="ja"><path fill="#fff" d="M0 0h40v40H0z"/></clipPath></defs></svg><svg fill="none" viewBox="0 0 40 40" id="delivery" xmlns="http://www.w3.org/2000/svg"><g fill="#4C4C4C" clip-path="url(#ka)"><path d="M18.594.047c-.149.016-.61.07-1.016.117-2.43.274-5.219 1.172-7.351 2.375a19.316 19.316 0 0 0-4.368 3.32A19.936 19.936 0 0 0 .117 17.58c-.156 1.265-.156 3.655 0 4.921.43 3.469 1.89 7.047 4 9.79.555.71 1.125.905 1.79.609.484-.22.695-.57.695-1.157 0-.414-.032-.515-.258-.82-2.04-2.719-3.188-5.39-3.657-8.5-.164-1.086-.187-3.367-.039-4.453C3.75 9.727 10.172 3.477 18.368 2.656c.491-.054.976-.078 1.07-.062.132.016-.11.266-1.25 1.273-.891.79-1.454 1.344-1.516 1.5-.469 1.102.617 2.188 1.71 1.711.36-.156 5.415-4.672 5.571-4.976.164-.32.164-.907 0-1.22-.203-.398-.539-.577-1.281-.694-.664-.11-3.54-.204-4.078-.141ZM34.094 7.18c-.485.218-.696.57-.696 1.156 0 .414.032.516.258.82 3.219 4.281 4.422 9.016 3.532 13.953-.868 4.813-3.758 9.07-7.93 11.696-2.445 1.539-5.438 2.453-8.461 2.586l-.992.047 1.422-1.399c.78-.766 1.46-1.469 1.5-1.562.046-.094.085-.36.085-.586 0-.492-.187-.852-.562-1.078-.344-.211-1.031-.211-1.352-.008-.304.195-4.937 4.695-5.125 4.976-.218.328-.203 1.024.032 1.36.265.406.593.547 1.484.672 6.273.843 12.5-1.227 16.898-5.626 2.938-2.945 4.829-6.617 5.586-10.882.235-1.313.297-4.18.118-5.649a20.334 20.334 0 0 0-3.938-9.75c-.633-.843-1.156-1.047-1.86-.726Z"/><path d="M12.695 11.883c-1.312.102-2.343.57-3.242 1.477-.969.968-1.367 2.007-1.312 3.492.015.656.054.828.187 1.015.57.774 1.602.774 2.172 0 .125-.164.164-.382.203-1.054.04-.625.094-.914.219-1.156.898-1.75 4.172-1.602 5.047.226.39.82.312 2.031-.18 2.742-.297.43-1.148 1.203-2.43 2.203-2.789 2.172-3.96 3.375-4.882 5-.305.524-.352.68-.352 1.055 0 .516.195.867.625 1.117.266.157.398.164 4.688.188 3.07.015 4.539 0 4.82-.063a1.257 1.257 0 0 0 .75-2.015c-.367-.493-.313-.485-3.906-.485h-3.258l.539-.555c.305-.304 1.32-1.171 2.265-1.93 3.477-2.773 4.11-3.702 4.125-6.07.008-1.578-.39-2.593-1.43-3.64-1.132-1.149-2.765-1.695-4.648-1.547Z"/><path d="M28.227 11.875a1.405 1.405 0 0 0-.438.203c-.281.211-8.648 10.406-8.742 10.649-.117.304-.031 1 .148 1.242.086.117.274.281.422.367.258.148.43.156 3.961.18l3.688.023v1.297c0 1.492.093 1.828.601 2.14.375.235 1 .235 1.375 0 .508-.312.602-.648.602-2.132v-1.29l.586-.046c.672-.047 1.008-.203 1.265-.602.235-.343.25-1.023.024-1.39-.258-.422-.578-.563-1.266-.563h-.61v-4.547c0-4.437 0-4.554-.163-4.875-.25-.523-.86-.797-1.453-.656Zm-.985 10.055c-.015.015-.976.015-2.133.008L23 21.913l2.117-2.562 2.11-2.57.023 2.562c.008 1.406.008 2.57-.008 2.586Z"/></g><defs><clipPath id="ka"><path fill="#fff" d="M0 0h40v40H0z"/></clipPath></defs></svg><svg fill="none" viewBox="0 0 72 71" id="equipment" xmlns="http://www.w3.org/2000/svg"><g fill="#4C4C4C"><path d="M31.604 1.456c-.305.291-.347.458-.347 1.234 0 .832-.027.915-.305.97-.18.043-.97.209-1.775.361-.804.167-1.595.333-1.775.375-.25.055-.346-.014-.527-.458-.319-.776-.582-1.026-1.11-1.026-.665 0-6.28 2.4-6.67 2.857-.36.402-.401.804-.11 1.303.11.194.194.444.208.569 0 .166-2.371 1.927-2.954 2.177-.055.028-.347-.166-.652-.444-.998-.901-1.081-.86-3.98 2.039-2.898 2.898-2.94 2.981-2.038 3.98.277.305.471.596.444.651-.25.583-2.01 2.954-2.177 2.954a1.797 1.797 0 0 1-.569-.208c-.5-.291-.901-.25-1.303.097-.416.375-2.857 5.99-2.857 6.56 0 .582.25.9.929 1.192.54.222.61.319.54.582-.04.167-.207.957-.36 1.761-.166.805-.319 1.595-.36 1.762-.056.29-.139.319-.97.319-.778 0-.944.041-1.235.346l-.347.333v7.516l.347.333c.291.305.457.346 1.234.346.832 0 .915.028.97.306.042.18.195.97.361 1.775.153.804.32 1.594.36 1.775.07.263 0 .346-.443.526-.776.32-1.026.583-1.026 1.11 0 .665 2.399 6.282 2.857 6.67.402.36.804.402 1.303.111.194-.111.444-.194.569-.208.166 0 1.927 2.371 2.177 2.954.027.055-.167.346-.444.651-.901.999-.86 1.082 2.038 3.98 2.899 2.898 2.982 2.94 3.98 2.039.306-.278.597-.472.652-.444.583.25 2.954 2.01 2.954 2.177a1.802 1.802 0 0 1-.208.569c-.291.499-.25.901.11 1.303.39.458 6.005 2.857 6.67 2.857.528 0 .791-.25 1.11-1.026.18-.444.278-.513.527-.458.18.042.97.208 1.775.36.805.167 1.595.334 1.775.375.278.055.305.139.305.97 0 .777.042.944.347 1.235l.333.347h7.516l.333-.347c.305-.291.346-.458.346-1.234 0-.832.028-.916.32-.97.166-.043.928-.195 1.705-.348.763-.152 1.553-.319 1.761-.36.333-.097.402-.042.596.43.32.79.583 1.026 1.124 1.026.665 0 6.254-2.4 6.67-2.857.346-.402.388-.804.097-1.303a1.797 1.797 0 0 1-.208-.569c0-.166 2.371-1.927 2.953-2.177.056-.028.347.166.652.444.999.901 1.082.86 3.98-2.039 2.898-2.898 2.94-2.981 2.039-3.98-.278-.305-.472-.596-.444-.651.25-.583 2.01-2.954 2.177-2.954.125.014.374.097.569.208.499.291.9.25 1.303-.097.458-.416 2.857-6.005 2.857-6.67 0-.541-.236-.804-1.026-1.123-.444-.18-.514-.264-.444-.527.041-.18.208-.971.36-1.775.167-.805.32-1.595.36-1.775.056-.278.14-.306.972-.306.776 0 .943-.041 1.234-.346l.346-.333v-7.516l-.346-.333c-.291-.305-.458-.346-1.234-.346-.832 0-.916-.028-.971-.32-.042-.166-.194-.956-.36-1.76a51.801 51.801 0 0 0-.361-1.762c-.07-.263 0-.36.54-.582.68-.291.93-.61.93-1.179 0-.568-2.455-6.212-2.857-6.573-.402-.347-.804-.388-1.303-.097a1.798 1.798 0 0 1-.569.208c-.166 0-1.928-2.371-2.177-2.954-.028-.055.166-.346.444-.651.901-.999.86-1.082-2.039-3.98-2.898-2.899-2.981-2.94-3.98-2.039-.305.278-.596.472-.651.444-.583-.25-2.954-2.01-2.954-2.177.014-.125.097-.375.208-.569.291-.499.25-.901-.097-1.303-.402-.458-6.019-2.857-6.684-2.857-.527 0-.79.25-1.11 1.026-.194.472-.263.527-.596.43-.208-.041-.998-.208-1.761-.36a73.22 73.22 0 0 1-1.706-.347c-.29-.056-.319-.139-.319-.97 0-.777-.041-.944-.346-1.235l-.333-.347h-7.516l-.333.347Zm6.31 2.649c0 1.33.166 1.47 2.19 1.775.763.124 2.206.416 3.19.651 1.747.444 1.817.444 2.177.208.208-.138.472-.471.583-.748a6.22 6.22 0 0 1 .235-.541c.042-.042 3.592 1.47 3.675 1.567.042.028-.041.277-.166.54-.472.971-.222 1.387 1.386 2.316.597.347 1.678 1.082 2.4 1.623 1.553 1.165 1.927 1.234 2.704.54l.499-.43 1.4 1.401 1.401 1.401-.43.5c-.693.776-.624 1.164.527 2.69.527.707 1.262 1.788 1.622 2.399.666 1.137 1.151 1.636 1.567 1.636.14 0 .472-.097.763-.222.278-.111.541-.194.555-.167.166.167 1.58 3.648 1.498 3.675-.527.18-1.11.597-1.29.902-.18.332-.18.457.041 1.248.278.998.874 3.869.999 4.881.139.998.527 1.331 1.595 1.331h.832v4.438h-.832c-1.068 0-1.456.333-1.595 1.331-.125 1.012-.721 3.883-.998 4.881-.222.79-.222.916-.042 1.248.18.305.763.721 1.29.902.083.027-1.332 3.508-1.498 3.674-.014.028-.277-.055-.555-.166-.291-.125-.624-.222-.763-.222-.416 0-.9.5-1.567 1.637-.36.61-1.095 1.691-1.622 2.399-1.15 1.525-1.22 1.913-.527 2.69l.43.499-1.4 1.4-1.401 1.401-.5-.43c-.776-.693-1.15-.61-2.69.527-.707.527-1.788 1.262-2.399 1.623-1.622.956-1.872 1.359-1.4 2.33.125.263.208.513.166.54-.166.18-3.66 1.595-3.688 1.512-.18-.527-.597-1.11-.902-1.29-.333-.18-.458-.18-1.248.042-.998.277-3.869.873-4.881.998-.999.139-1.331.527-1.331 1.595v.832H33.476v-.832c0-1.068-.333-1.456-1.331-1.595-1.22-.166-2.177-.347-4.036-.79-1.76-.43-1.83-.43-2.19-.195-.209.14-.472.472-.583.75-.11.277-.222.526-.236.54-.041.042-3.591-1.47-3.675-1.567-.041-.027.042-.277.167-.54.471-.971.222-1.373-1.4-2.33-.61-.36-1.692-1.096-2.4-1.623-1.525-1.15-1.913-1.22-2.69-.527l-.5.43-1.4-1.4-1.4-1.401.43-.5c.693-.776.624-1.164-.527-2.69-.527-.707-1.262-1.788-1.623-2.398-.957-1.623-1.359-1.873-2.33-1.401-.263.125-.513.208-.54.166-.097-.083-1.609-3.633-1.567-3.675.014-.013.263-.124.54-.235.278-.111.61-.375.75-.583.235-.36.235-.43-.209-2.177a54.817 54.817 0 0 1-.651-3.19c-.306-2.024-.444-2.19-1.775-2.19h-.777V33.28h.832c1.068 0 1.456-.333 1.595-1.331.125-.985.707-3.855.998-4.881.222-.79.222-.915.042-1.248-.18-.305-.763-.721-1.29-.902-.083-.027 1.331-3.522 1.512-3.688.027-.042.277.041.54.166.971.472 1.373.222 2.33-1.4.36-.61 1.096-1.692 1.623-2.4 1.137-1.539 1.22-1.913.527-2.69l-.43-.499 1.4-1.4 1.4-1.401.5.43c.777.693 1.165.624 2.663-.5a32.62 32.62 0 0 1 2.19-1.483c1.165-.68 1.873-1.332 1.873-1.72 0-.152-.111-.499-.236-.776-.125-.264-.208-.513-.166-.541.166-.18 3.66-1.595 3.688-1.512.18.527.596 1.11.901 1.29.333.18.458.18 1.249-.042.998-.277 3.869-.873 4.88-.998 1-.139 1.332-.527 1.332-1.595v-.832h4.438v.777Z"/><path d="M34.586 10.165c-.68.222-1.845 1.414-2.053 2.121-.388 1.304-.11 2.344.874 3.315.707.72 1.414 1.04 2.288 1.04.873 0 1.58-.32 2.288-1.04 1.359-1.346 1.4-3.079.11-4.507-.9-.999-2.19-1.345-3.508-.93Zm1.872 2.385c.221.208.346.499.346.762 0 .264-.125.555-.346.763-.68.694-1.872.208-1.872-.762 0-.57.54-1.11 1.109-1.11.263 0 .554.125.763.347ZM27.097 11.496C14.103 16.169 7.114 30.522 11.483 43.543c.943 2.773 1.65 4.022 2.315 4.022.32 0 13.91-5.187 14.367-5.492.596-.374.555-.79-.222-2.316-.79-1.553-1.123-2.815-1.123-4.257 0-3.786 2.523-7.253 6.184-8.445.874-.291 1.304-.68 1.304-1.193 0-.29-3.966-13.381-4.313-14.255-.332-.804-.901-.832-2.898-.111Zm2.898 7.613c.957 3.106 1.748 5.713 1.775 5.796.042.098-.402.389-.97.666-5.242 2.51-7.544 8.723-5.312 14.27l.333.804-.29.138c-.167.07-2.733 1.054-5.686 2.191l-5.395 2.067-.333-.763a21.926 21.926 0 0 1-.749-2.163C9.985 30.522 15.92 18.36 27.166 13.812c.458-.18.902-.347.971-.347.083 0 .915 2.538 1.858 5.644ZM41.782 11.094c-.124.07-.29.305-.388.513-.333.846-4.313 13.964-4.313 14.241 0 .5.389.888 1.151 1.124 2.344.776 4.355 2.468 5.353 4.534 1.36 2.801 1.318 5.395-.138 8.237-.777 1.526-.819 1.956-.222 2.33.416.264 14.033 5.492 14.31 5.492.5 0 .819-.361 1.387-1.567 3.87-8.252 2.718-18.513-2.926-25.918-.956-1.248-3.148-3.495-4.354-4.465-2.233-1.803-4.853-3.26-7.46-4.16-1.47-.514-2.011-.597-2.4-.361Zm2.76 2.856c2.829 1.151 5.38 2.885 7.655 5.187 3.633 3.66 5.907 8.32 6.587 13.423.333 2.538.235 5.034-.291 7.724-.236 1.137-1.04 3.73-1.387 4.382l-.18.375-5.381-2.067c-2.954-1.137-5.52-2.121-5.686-2.19l-.29-.14.332-.804c2.233-5.546-.042-11.676-5.297-14.283-.569-.277-1.012-.568-.985-.651.028-.084.818-2.69 1.775-5.797.943-3.106 1.775-5.658 1.83-5.658.07 0 .653.222 1.318.5Z"/><path d="M34.045 29.066c-3.509.943-5.686 4.59-4.798 8.029.929 3.55 4.562 5.755 8.043 4.854 3.55-.93 5.755-4.563 4.853-8.016-.929-3.591-4.618-5.81-8.098-4.867Zm3.744 2.565c.929.5 1.359.943 1.9 1.983.305.597.36.888.36 1.886.014 1.082-.027 1.248-.457 2.053-.527.97-.971 1.386-2.011 1.941-.596.305-.888.36-1.886.36-.998 0-1.29-.055-1.886-.36-1.04-.555-1.484-.97-2.01-1.941-.43-.805-.472-.971-.458-2.053 0-1.386.332-2.218 1.234-3.12 1.387-1.387 3.453-1.678 5.214-.749ZM29.33 42.808c-.194.166-1.207 2.62-2.995 7.28-1.484 3.87-2.705 7.128-2.705 7.253 0 .5.36.818 1.567 1.387 6.449 3.023 14.616 3.023 20.981.013 1.22-.582 1.581-.9 1.581-1.4 0-.125-1.22-3.384-2.704-7.253-1.789-4.66-2.801-7.114-2.995-7.28-.43-.347-.735-.291-1.845.305-1.553.86-2.8 1.179-4.52 1.179-1.72 0-2.968-.32-4.52-1.179-1.11-.596-1.415-.652-1.845-.305Zm5.034 3.661c1.705.222 3.48.014 5.103-.569.638-.235 1.206-.43 1.276-.457.069-.014 1.109 2.524 2.301 5.63l2.191 5.658-.374.18c-1.387.707-4.451 1.498-6.878 1.761-3.495.375-8.126-.291-11.066-1.595l-.763-.332 2.066-5.395c1.138-2.953 2.122-5.519 2.191-5.672l.14-.304 1.233.47c.777.292 1.748.528 2.58.625ZM17.945 48.993c-.68.222-1.845 1.414-2.053 2.122-.388 1.303-.11 2.343.874 3.314 1.4 1.414 3.176 1.414 4.576 0 1.36-1.345 1.4-3.079.111-4.507-.901-.998-2.19-1.345-3.508-.929Zm1.872 2.385c.693.68.208 1.872-.763 1.872a1.08 1.08 0 0 1-.762-.346 1.08 1.08 0 0 1-.347-.763c0-.264.125-.555.346-.763.209-.222.5-.347.763-.347.264 0 .555.125.763.347ZM51.226 48.993c-.68.222-1.844 1.414-2.052 2.122-.389 1.303-.111 2.343.873 3.314 1.401 1.414 3.176 1.414 4.577 0 1.358-1.345 1.4-3.079.11-4.507-.9-.998-2.19-1.345-3.508-.929Zm1.872 2.385c.694.68.208 1.872-.762 1.872-.57 0-1.11-.54-1.11-1.11 0-.568.54-1.109 1.11-1.109.263 0 .554.125.762.347Z"/></g></svg><svg fill="none" viewBox="0 0 72 71" id="frame" xmlns="http://www.w3.org/2000/svg"><path d="M49.354 14.768c-.194.18-.347.472-.347.638 0 .153.347 1.567.777 3.134.43 1.553.749 2.857.721 2.87-.097.084-19.72 3.967-19.76 3.912-.07-.07-1.152-2.899-1.152-3.01 0-.055.416-.166.916-.25a8.093 8.093 0 0 0 2.967-1.136 6.49 6.49 0 0 1 3.411-.957h1.027v-2.261l-1.415.07c-1.65.083-2.746.402-4.132 1.22-2.358 1.387-4.715 1.303-7.073-.277-.568-.375-1.081-.694-1.137-.694-.097 0-1.22 1.581-1.22 1.72 0 .277 2.898 1.913 3.689 2.08.43.097.471.18 1.275 2.316l.832 2.218-.568.527c-1.636 1.498-5.866 5.187-6.005 5.242-.083.028-.499-.138-.9-.388-.972-.569-2.483-1.165-3.676-1.47-1.331-.319-4.631-.333-5.935 0-2.538.638-4.548 1.775-6.407 3.62-1.844 1.858-2.981 3.882-3.619 6.406-.333 1.317-.333 4.618 0 5.935.624 2.482 1.775 4.535 3.564 6.338 2.413 2.454 5.297 3.771 8.68 3.965 6.713.389 12.717-4.382 13.826-11.01l.18-1.082 1.207-.041c.957-.028 1.207 0 1.207.152 0 .458 1.012 2.177 1.608 2.718.583.541 2.122 1.4 2.524 1.4.125 0 .166.334.166 1.18v1.178H30.147V53.25h2.982c2.996 0 2.996 0 3.329-.347.332-.319.346-.402.346-2.288 0-1.553.042-1.941.194-1.941.097 0 .624-.222 1.151-.486 1.193-.596 1.997-1.428 2.58-2.676.402-.846.443-1.054.443-2.246 0-1.193-.041-1.415-.43-2.22-.526-1.108-1.109-1.788-2.01-2.384l-.694-.444.666-.652c2.246-2.232 12.883-12.023 12.966-11.94.055.056.152.306.194.555.083.444.083.444-.485.444-.43 0-.666.083-.916.347-.43.416-.43.513.014 2.593.36 1.65.36 1.705.111 1.872-.152.11-.735.5-1.317.873-3.744 2.441-6.046 7.156-5.769 11.788.208 3.314 1.54 6.198 3.966 8.597 1.803 1.79 3.855 2.94 6.337 3.564 1.318.333 4.618.333 5.935 0 2.566-.638 4.494-1.733 6.393-3.633 1.9-1.9 2.996-3.827 3.633-6.393.333-1.317.333-4.618 0-5.935-.998-3.966-3.591-7.225-7.169-8.958-1.4-.666-2.219-.93-4.007-1.234l-1.332-.222-.29-1.373c-.375-1.706-.542-1.886-1.804-1.886h-.873l-.167-.596c-.083-.32-.68-2.51-1.317-4.854-.638-2.343-1.165-4.326-1.165-4.396 0-.083 1.304-.138 3.328-.138h3.342l.333.346c.458.444.458 1.082 0 1.526-.319.332-.402.346-2.219.346h-1.872v2.22h1.886c2.358 0 2.829-.126 3.73-1.04.985-.972 1.262-2.012.874-3.315-.222-.763-1.373-1.914-2.136-2.136-.402-.11-1.913-.166-4.895-.166h-4.326l-.333.346Zm.763 9.014c0 .028-3.315 3.162-7.364 6.948-5.31 4.95-7.405 6.836-7.474 6.698-.194-.347-3.744-9.874-3.703-9.915.028-.028 4.188-.888 9.264-1.9 5.061-1.026 9.221-1.872 9.249-1.886.014 0 .028.014.028.055Zm-20.135 5.894.277.776-6.92 5.852-6.92 5.866-1.067-.041-1.054-.042 7.599-6.698c4.174-3.689 7.64-6.656 7.696-6.587.056.056.236.458.389.874Zm26.153 5.56c.749 3.509 1.4 6.504 1.428 6.657.07.25-.014.263-1.026.263h-1.095l-1.373-6.42c-.749-3.523-1.4-6.518-1.428-6.656-.056-.208.055-.236 1.026-.236h1.095l1.373 6.392Zm-39.771-2.912c1.11.195 2.787.75 3.425 1.138l.541.332-.874.763-.86.777-.568-.25c-3.259-1.387-7.1-.624-9.652 1.941-3.466 3.467-3.494 9-.069 12.412 3.273 3.258 7.988 3.605 11.676.86 1.567-1.166 2.87-3.204 3.245-5.062l.18-.86h2.275l-.18.93a11.228 11.228 0 0 1-4.896 7.266c-1.858 1.22-3.577 1.719-5.99 1.719-2.413 0-4.133-.5-5.99-1.72-3.024-1.983-4.827-5.075-5.062-8.694-.403-6.227 4.617-11.593 10.927-11.69.568 0 1.414.055 1.872.138Zm44.153.541a11.252 11.252 0 0 1 5.56 4.41c1.221 1.872 1.72 3.578 1.72 5.99 0 3.135-1.04 5.658-3.203 7.822-2.163 2.163-4.687 3.203-7.821 3.203-2.413 0-4.133-.5-5.99-1.72-2.427-1.58-3.994-3.785-4.799-6.739-.319-1.179-.305-3.98.028-5.27.68-2.634 2.385-5.033 4.632-6.517.707-.472.748-.444.984.846l.167.901-1.082 1.068c-.596.596-1.29 1.428-1.54 1.858-2.066 3.509-1.538 7.904 1.29 10.72 1.706 1.691 3.523 2.523 5.825 2.662 2.523.139 4.867-.749 6.642-2.524 1.706-1.692 2.538-3.508 2.676-5.824.25-4.243-2.399-7.821-6.74-9.11l-.623-.181-.236-1.096-.236-1.095.805.083c.443.056 1.317.278 1.941.513Zm-28.303 2.76c.846 2.274.97 2.718.79 2.815-1.095.61-2.107 1.83-2.537 3.037l-.25.693-1.178-.041-1.18-.042-.096-.832c-.139-1.026-.541-2.4-1.082-3.592l-.402-.915 1.415-1.206c.776-.666 1.844-1.567 2.37-2.025.528-.444 1-.763 1.055-.693.055.055.54 1.317 1.095 2.8Zm-15.808 1.22c.305.125.11.319-2.635 2.732-1.637 1.442-3.106 2.76-3.273 2.954-.43.443-.416 1.067.028 1.497l.333.347h10.317l-.097.444c-.167.873-.874 2.135-1.65 2.967-.86.943-1.97 1.595-3.218 1.928-3.48.901-7.113-1.304-8.043-4.854-.887-3.439 1.262-7.044 4.799-8.043.79-.221 2.8-.208 3.439.028Zm43.446.54c1.553.791 2.898 2.497 3.37 4.286 1.233 4.756-3.287 9.277-8.044 8.043-3.55-.93-5.755-4.563-4.853-8.015.11-.444.36-1.11.554-1.498.416-.804 1.318-1.858 1.456-1.692.056.056.347 1.262.638 2.676.416 2.011.597 2.635.846 2.871.291.305.389.319 2.954.319 2.62 0 2.649 0 2.981-.347.195-.18.347-.457.347-.61 0-.152-.277-1.595-.624-3.203-.347-1.609-.624-2.982-.624-3.051 0-.222.236-.166.998.222Zm-34.987 1.707c.346.887.707 2.26.707 2.745 0 .305-.056.32-1.096.32h-1.095l-.097-.652a6.4 6.4 0 0 0-.32-1.207l-.221-.54.832-.736c.444-.416.846-.749.887-.749.042 0 .222.361.402.819Zm11.856 1.012c.763.222 1.914 1.373 2.136 2.135.346 1.165.124 2.22-.638 3.107-.403.485-1.082.97-1.346.97-.041 0-.069-.943-.069-2.08v-2.08H34.585v2.08c0 1.137-.027 2.08-.069 2.08-.263 0-.943-.485-1.345-.97-1.165-1.345-1.068-3.079.236-4.368.97-.985 2.01-1.248 3.314-.874Zm-15.67 1.442c.194.5.097.61-.54.61h-.625l.444-.416c.527-.471.61-.499.721-.194Z" fill="#4C4C4C"/></svg><svg fill="none" viewBox="0 0 40 40" id="guarantee" xmlns="http://www.w3.org/2000/svg"><g clip-path="url(#na)" fill="#4C4C4C"><path d="M18.695.117c-1.53.274-2.633.86-4.07 2.149-1.016.922-2.21 1.398-3.5 1.406-1.031 0-2.422.328-3.313.781-1.351.68-2.687 2.016-3.359 3.36-.453.89-.781 2.28-.781 3.312a5.077 5.077 0 0 1-1.164 3.211c-1.14 1.352-1.383 1.688-1.735 2.422C.195 17.945.047 18.633.047 20c0 1.336.148 2.031.68 3.164.367.781.757 1.344 1.476 2.133 1.016 1.11 1.367 1.977 1.469 3.602.094 1.515.351 2.5.906 3.515.703 1.274 1.945 2.477 3.234 3.133.883.453 2.282.781 3.313.781 1.29.008 2.508.492 3.508 1.406.805.735 1.328 1.11 1.969 1.438 1.476.75 3.07.992 4.671.71 1.532-.265 2.696-.866 4.008-2.07 1.125-1.03 1.977-1.382 3.649-1.484 2.297-.148 3.867-.828 5.25-2.281 1.414-1.469 2-2.883 2.148-5.11.102-1.687.445-2.515 1.524-3.71 1-1.102 1.562-2.094 1.898-3.344.172-.64.195-.914.195-1.883s-.023-1.242-.195-1.883c-.352-1.297-.914-2.273-2.016-3.484-.914-1-1.398-2.219-1.406-3.508 0-1.14-.36-2.547-.906-3.531-.805-1.477-2.336-2.836-3.781-3.383-.82-.312-1.61-.469-2.711-.539-1.672-.102-2.524-.453-3.649-1.484-.968-.891-1.765-1.391-2.765-1.75-1.172-.414-2.625-.54-3.82-.32Zm2.36 2.344c.812.172 1.703.633 2.406 1.258.969.851 1.445 1.187 2.203 1.555.922.453 1.79.656 3.078.742.586.039 1.242.125 1.453.18a5.134 5.134 0 0 1 3.524 3.367c.14.46.218.914.265 1.695.086 1.328.29 2.164.782 3.156.398.805.586 1.07 1.515 2.125 1.828 2.086 1.828 4.82-.008 6.93-.93 1.062-1.109 1.32-1.507 2.117-.493.992-.696 1.828-.782 3.156-.132 2.086-.843 3.414-2.336 4.399-.82.539-1.593.758-2.906.843-1.328.086-2.164.29-3.156.782-.805.398-1.07.586-2.125 1.515-2.078 1.828-4.844 1.828-6.922 0-1.055-.93-1.32-1.117-2.125-1.515-.992-.492-1.828-.696-3.156-.782-.781-.046-1.235-.125-1.695-.265a5.134 5.134 0 0 1-3.368-3.524c-.054-.21-.14-.867-.18-1.453-.085-1.328-.296-2.164-.78-3.156-.4-.805-.587-1.07-1.516-2.125-1.828-2.078-1.828-4.836 0-6.93.883-1.007 1.195-1.453 1.554-2.195.454-.93.657-1.789.743-3.078.101-1.508.304-2.164.968-3.086.985-1.383 2.266-2.031 4.274-2.156 2.219-.14 3.39-.649 5.273-2.297 1.32-1.156 2.914-1.594 4.524-1.258Z"/><path d="M18.867 8.258c-3.687.437-6.734 2.281-8.703 5.265a11.899 11.899 0 0 0-1.773 4.407c-.204 1.078-.204 3.062 0 4.14a11.842 11.842 0 0 0 9.539 9.54c1.078.203 3.062.203 4.14 0a11.842 11.842 0 0 0 9.54-9.54c.203-1.078.203-3.062 0-4.14-.946-5.078-4.962-8.922-10.047-9.61-.75-.101-2.11-.133-2.696-.062Zm2.54 2.398a9.483 9.483 0 0 1 7.007 5.086c.75 1.485.992 2.555.992 4.258 0 1.313-.117 2.07-.476 3.086-1.149 3.195-3.735 5.46-7.07 6.18-.907.203-2.82.195-3.735 0a9.806 9.806 0 0 1-5.742-3.68c-.805-1.07-1.508-2.773-1.719-4.156-.695-4.586 1.992-8.93 6.453-10.422 1.313-.438 2.86-.563 4.29-.352Z"/><path d="m21.406 18.79-3.086 3.085-1.445-1.445-1.445-1.446-.82.82-.82.821 2.288 2.29 2.281 2.28 3.907-3.906c2.148-2.148 3.906-3.945 3.906-3.984 0-.102-1.5-1.602-1.602-1.602-.047 0-1.468 1.39-3.164 3.086Z"/></g><defs><clipPath id="na"><path fill="#fff" d="M0 0h40v40H0z"/></clipPath></defs></svg><svg fill="none" viewBox="0 0 24 24" id="heart" xmlns="http://www.w3.org/2000/svg"><path d="M4.331 12.047 12 20l7.669-7.953A4.804 4.804 0 0 0 21 8.714C21 6.111 18.965 4 16.454 4a4.465 4.465 0 0 0-3.214 1.38L12 6.668 10.76 5.38A4.465 4.465 0 0 0 7.546 4C5.036 4 3 6.11 3 8.714c0 1.25.479 2.45 1.331 3.333Z" stroke="#fff" stroke-width="1.5" stroke-linecap="round" stroke-linejoin="round"/><circle cx="19" cy="5" r="3" fill="#F57520"/></svg><svg fill="none" viewBox="0 0 33 32" id="mail" xmlns="http://www.w3.org/2000/svg"><g stroke="#4C4C4C" stroke-width="1.5" stroke-linecap="round" stroke-linejoin="round"><path d="M28.667 6.667H7.333A1.33 1.33 0 0 0 6 8v16c0 .737.597 1.334 1.333 1.334h21.334c.736 0 1.333-.597 1.333-1.334V8a1.33 1.33 0 0 0-1.333-1.333Z"/><path d="m6.39 7.058 9.724 9.723a2.666 2.666 0 0 0 3.772 0l9.724-9.723"/></g></svg><svg fill="none" viewBox="0 0 32 32" id="mail-orange" xmlns="http://www.w3.org/2000/svg"><g stroke="#F57520" stroke-width="1.5" stroke-linecap="round" stroke-linejoin="round"><path d="M26.667 6.667H5.333A1.33 1.33 0 0 0 4 8v16c0 .737.597 1.334 1.333 1.334h21.334c.736 0 1.333-.597 1.333-1.334V8a1.33 1.33 0 0 0-1.333-1.333Z"/><path d="m4.39 7.058 9.724 9.723a2.666 2.666 0 0 0 3.772 0l9.724-9.723"/></g></svg><svg fill="none" viewBox="0 0 112 138" id="map" xmlns="http://www.w3.org/2000/svg"><ellipse cx="56" cy="135" rx="30" ry="3" fill="#101010"/><path d="M95.598 95.46 56 135 16.402 95.46A55.894 55.894 0 0 1 1.076 66.827a55.843 55.843 0 0 1 3.187-32.309A55.936 55.936 0 0 1 24.888 9.425 56.058 56.058 0 0 1 56 0a56.058 56.058 0 0 1 31.112 9.424 55.933 55.933 0 0 1 20.625 25.096 55.837 55.837 0 0 1 3.187 32.308 55.895 55.895 0 0 1-15.326 28.631Z" fill="#F57520"/><path d="M94.184 94.63 56 133 17.816 94.63A54.345 54.345 0 0 1 3.038 66.849 54.506 54.506 0 0 1 6.11 35.497a54.206 54.206 0 0 1 19.888-24.352A53.815 53.815 0 0 1 56 2c10.68 0 21.12 3.182 30 9.145a54.205 54.205 0 0 1 19.889 24.352 54.495 54.495 0 0 1 3.073 31.35 54.339 54.339 0 0 1-14.778 27.784Z" fill="#101010"/><path d="M35.706 56.051c1.915 0 3.468-1.594 3.468-3.561 0-1.968-1.553-3.562-3.468-3.562-1.916 0-3.47 1.594-3.47 3.562 0 1.967 1.554 3.561 3.47 3.561ZM38.48 45.223c1.916 0 3.469-1.594 3.469-3.562 0-1.967-1.553-3.561-3.469-3.561s-3.469 1.594-3.469 3.561c0 1.968 1.553 3.562 3.47 3.562Z" stroke="#fff" stroke-width=".731" stroke-miterlimit="10"/><path d="M38.615 42.054a.193.193 0 0 0 .142-.077c.341-.47-.091-.61-.091-.61l-6.704.536a.2.2 0 0 1-.219-.245c.119-.56.324-1.096.608-1.592a.4.4 0 0 1 .702 0l-.003.552a.186.186 0 0 0 .027.107.437.437 0 0 0 .148.14.196.196 0 0 0 .287-.153c.052-.438.065-1.419-.849-1.458-1.232-.061-1.554 2.275-1.63 3.135a.286.286 0 0 0 .295.313h1.005a.2.2 0 0 1 .188.137.199.199 0 0 1 .01.082l-.47 5.066a.195.195 0 0 1-.187.18l-1.407.083a.198.198 0 0 1-.202-.146.2.2 0 0 1-.004-.089c.049-.243.078-.49.088-.737 0-.25-.219-.342-.332-.412a.113.113 0 0 0-.175.072l-.558 2.669a.196.196 0 0 0 .048.177.387.387 0 0 0 .247.116.199.199 0 0 0 .206-.133l.23-.657a.197.197 0 0 1 .165-.133l1.675-.167a.196.196 0 0 1 .166.064l3.584 3.94a.2.2 0 0 0 .147.066h.136a.196.196 0 0 0 .188-.136l1.7-5.048a.199.199 0 0 0-.035-.19l-3.934-4.73a.19.19 0 0 1-.046-.15v-.046a.198.198 0 0 1 .181-.173l4.673-.353Zm-1.768 6.53-1.093 3.002a.199.199 0 0 1-.332.066l-2.42-2.627a.2.2 0 0 1 .116-.331l3.497-.565a.199.199 0 0 1 .219.195v.19a.179.179 0 0 1 .013.07Zm-.34-1.201-3.575.564a.198.198 0 0 1-.218-.218l.437-4.16a.199.199 0 0 1 .332-.105l3.141 3.593a.199.199 0 0 1-.118.326Z" fill="#fff" stroke="#fff" stroke-width=".244" stroke-miterlimit="10"/><path d="m75.841 73.083 1.506-4.01-3.416-2.5h4.37l1.396-3.974 1.139 4.045h4.185L81.496 69l1.066 4.083-3.086-2.319" fill="#F57520"/><path d="M57.824 79.787h4.386L74.409 37.46h-4.385l-12.2 42.326Z" fill="#fff"/><path fill-rule="evenodd" clip-rule="evenodd" d="m64.283 79.787 1.355-4.233h15.657c.406 0 .792.001 1.164-.008 2.05-.115 3.922-1.238 5.368-2.713a8.208 8.208 0 0 0-.027-11.514c-.777-.786-1.687-1.155-2.679-1.33a19.307 19.307 0 0 0-1.87-.155c-.286-.006-.575-.008-.868-.01l-.283-.002H69.784l1.196-3.834h6.06c1.081 0 1.721.012 2.278.022.922.016 1.615.028 3.702-.022 1.098-.026 1.82-.06 2.461-.234a7.651 7.651 0 0 0 2.78-1.81 7.69 7.69 0 0 0 2.195-5.381c0-2.027-.773-4.233-2.196-5.672-1.422-1.438-3.343-1.66-5.363-1.677h-7.531l.877-3.753h5.422c.433 0 .78-.004 1.082-.008 1.03-.012 1.522-.018 3.064.168.214.025.41.065.59.117 1.816.318 3.488.985 4.846 2.358 2.2 2.226 3.4 5.332 3.415 8.467a11.973 11.973 0 0 1-3.415 8.323c-.278.285-.57.533-.875.75.205.156.405.332.6.528a12.776 12.776 0 0 1 3.689 8.927 12.773 12.773 0 0 1-3.646 8.882 12.362 12.362 0 0 1-5.328 3.194c-1.121.393-2.402.62-3.863.62H64.283Z" fill="#fff"/><path d="M17.797 37.46h4.306l10.286 35.698-1.595 6.629L17.797 37.46ZM32.47 79.787h4.225l8.93-34.66 10.206 34.66 2.073-6.788L47.22 37.46h-3.987L32.47 79.787Z" fill="#fff"/></svg><svg fill="none" viewBox="0 0 33 32" id="navigation" xmlns="http://www.w3.org/2000/svg"><g clip-path="url(#ta)"><path d="m21.404 29.815 3.25-24.297L5.238 20.481l10.083 1.203 6.083 8.13Z" stroke="#4C4C4C" stroke-width="1.5" stroke-linecap="round" stroke-linejoin="round"/></g><defs><clipPath id="ta"><path fill="#fff" transform="translate(.667)" d="M0 0h32v32H0z"/></clipPath></defs></svg><svg fill="none" viewBox="0 0 32 32" id="navigation-orange" xmlns="http://www.w3.org/2000/svg"><g clip-path="url(#sa)"><path d="m20.737 29.815 3.25-24.297L4.572 20.481l10.083 1.203 6.083 8.13Z" stroke="#F57520" stroke-width="1.5" stroke-linecap="round" stroke-linejoin="round"/></g><defs><clipPath id="sa"><path fill="#fff" d="M0 0h32v32H0z"/></clipPath></defs></svg><svg fill="none" viewBox="0 0 33 32" id="phone" xmlns="http://www.w3.org/2000/svg"><path d="M19.333 4H8.667A2.667 2.667 0 0 0 6 6.667v18.666A2.667 2.667 0 0 0 8.667 28h10.666A2.667 2.667 0 0 0 22 25.333V6.667A2.667 2.667 0 0 0 19.333 4ZM14 24.013V24" stroke="#4C4C4C" stroke-width="1.5" stroke-linecap="round" stroke-linejoin="round"/></svg><svg fill="none" viewBox="0 0 121 121" id="play" xmlns="http://www.w3.org/2000/svg"><path d="M89.526 56.673c3.326 1.926 3.326 6.728 0 8.654l-42.02 24.328C44.171 91.585 40 89.179 40 85.328V36.672c0-3.851 4.172-6.257 7.505-4.327l42.02 24.328Z" fill="#F57520"/><circle cx="60.5" cy="60.5" r="60" stroke="#F57520"/></svg><svg fill="none" viewBox="0 0 24 24" id="search" xmlns="http://www.w3.org/2000/svg"><path d="M16 10.5a7.5 7.5 0 1 1-15 0 7.5 7.5 0 0 1 15 0ZM18 20l-4.197-4.197" stroke="currentColor" stroke-width="1.5" stroke-linecap="round" stroke-linejoin="round"/></svg><svg fill="none" viewBox="0 0 32 32" id="smartphone" xmlns="http://www.w3.org/2000/svg"><path d="M21.333 4H10.667A2.667 2.667 0 0 0 8 6.667v18.666A2.667 2.667 0 0 0 10.667 28h10.666A2.667 2.667 0 0 0 24 25.333V6.667A2.667 2.667 0 0 0 21.333 4ZM16 24.013V24" stroke="#F57520" stroke-width="1.5" stroke-linecap="round" stroke-linejoin="round"/></svg><svg fill="none" viewBox="0 0 72 71" id="transmission" xmlns="http://www.w3.org/2000/svg"><g fill="#4C4C4C"><path d="M8.238 9.083C5.81 9.61 3.44 11.468 2.302 13.73.542 17.25 1.18 21.23 3.952 24.004c1.526 1.526 3.204 2.316 5.561 2.607 3.44.416 6.407 2.233 8.057 4.965.583.957 1.387 3.23 1.387 3.924s-.763 2.843-1.373 3.883c-.666 1.15-2.371 2.857-3.522 3.522-1.193.694-3.051 1.304-4.549 1.484-2.357.291-4.035 1.082-5.56 2.607-3.481 3.48-3.523 9-.084 12.425 1.706 1.692 3.523 2.524 5.825 2.663 2.51.138 4.853-.75 6.656-2.524 1.595-1.567 2.385-3.245 2.69-5.644.416-3.44 2.233-6.407 4.965-8.057 1.095-.666 3.092-1.317 4.59-1.498.665-.083 1.567-.263 1.997-.402 2.648-.818 4.978-3.162 5.838-5.893.43-1.373.43-3.758 0-5.131a9.103 9.103 0 0 0-2.26-3.675c-1.54-1.526-3.273-2.344-5.575-2.621-1.498-.18-3.495-.832-4.59-1.498-1.734-1.04-3.426-2.995-4.119-4.756-.402-.985-.832-2.593-.832-3.12-.014-.902-.444-2.413-.998-3.536-1.803-3.564-5.852-5.492-9.818-4.646Zm3.536 2.219c2.579.68 4.576 2.87 4.936 5.436.694 4.909 2.746 8.32 6.213 10.317.458.264.846.5.846.54 0 .043-.277.25-.624.459-.957.61-1.886 1.511-2.496 2.44-.305.458-.583.832-.624.832-.042 0-.278-.374-.541-.832-1.997-3.467-5.408-5.519-10.317-6.212-2.566-.36-4.757-2.358-5.436-4.937-1.234-4.743 3.3-9.277 8.043-8.043Zm17.75 17.75c3.55.929 5.755 4.562 4.853 8.043-.68 2.58-2.87 4.576-5.436 4.937-1.941.277-3.855.804-5.13 1.442-4.05 1.997-6.352 5.491-7.1 10.789-.361 2.565-2.358 4.756-4.937 5.435-4.743 1.235-9.277-3.3-8.043-8.043.68-2.579 2.87-4.576 5.436-4.936 5.297-.75 8.792-3.051 10.788-7.1.638-1.276 1.165-3.19 1.443-5.131.526-3.786 4.423-6.393 8.126-5.436Z"/><path d="M9.14 13.438a4.687 4.687 0 0 0-2.982 2.44c-.264.569-.333.915-.333 1.872-.014 1.082.028 1.248.458 2.052.526.971.97 1.387 2.01 1.942.597.305.888.36 1.886.36.999 0 1.29-.055 1.886-.36 1.04-.555 1.484-.97 2.01-1.942.43-.804.472-.97.459-2.052 0-.998-.056-1.29-.361-1.886-.54-1.04-.97-1.484-1.9-1.983-.901-.471-2.274-.68-3.134-.444Zm1.913 2.288c1.428.596 1.775 2.454.665 3.563-1.553 1.567-4.104.167-3.702-2.024.25-1.304 1.775-2.08 3.037-1.54ZM26.89 31.188a4.688 4.688 0 0 0-2.982 2.44c-.264.569-.333.915-.333 1.872-.014 1.082.028 1.248.457 2.053.527.97.971 1.386 2.011 1.94.597.306.888.361 1.886.361.999 0 1.29-.055 1.886-.36 1.04-.555 1.484-.97 2.01-1.941.43-.805.472-.971.458-2.053 0-.998-.055-1.29-.36-1.886-.54-1.04-.97-1.483-1.9-1.983-.901-.471-2.274-.68-3.134-.444Zm1.913 2.288c1.428.596 1.775 2.454.665 3.563-.9.902-2.177.902-3.078 0-1.72-1.705.18-4.506 2.413-3.563ZM9.14 48.938a4.687 4.687 0 0 0-2.982 2.44c-.264.569-.333.915-.333 1.872-.014 1.082.028 1.248.458 2.053.526.97.97 1.386 2.01 1.94.597.306.888.361 1.886.361.999 0 1.29-.055 1.886-.36 1.04-.555 1.484-.97 2.01-1.941.43-.805.472-.971.459-2.053 0-.998-.056-1.29-.361-1.886-.54-1.04-.97-1.483-1.9-1.983-.901-.471-2.274-.68-3.134-.444Zm1.913 2.288c1.428.596 1.775 2.454.665 3.563-.9.902-2.177.902-3.078 0-1.72-1.705.18-4.506 2.413-3.563ZM41.519 9.083c-2.427.527-4.798 2.385-5.935 4.646-1.762 3.522-1.124 7.502 1.65 10.275 1.525 1.526 3.203 2.316 5.56 2.607 3.44.416 6.407 2.233 8.058 4.965.582.957 1.386 3.23 1.386 3.924s-.763 2.843-1.373 3.883c-.665 1.15-2.371 2.857-3.522 3.522-1.193.694-3.05 1.304-4.548 1.484-2.358.291-4.036 1.082-5.561 2.607-3.48 3.48-3.522 9-.083 12.425 1.705 1.692 3.522 2.524 5.824 2.663 2.51.138 4.853-.75 6.656-2.524 1.595-1.567 2.385-3.245 2.69-5.644.416-3.44 2.233-6.407 4.965-8.057 1.095-.666 3.092-1.317 4.59-1.498.666-.083 1.567-.263 1.997-.402 2.648-.818 4.978-3.162 5.838-5.893.43-1.373.43-3.758 0-5.131a9.103 9.103 0 0 0-2.26-3.675c-1.54-1.526-3.273-2.344-5.575-2.621-1.498-.18-3.495-.832-4.59-1.498-1.734-1.04-3.425-2.995-4.119-4.756-.402-.985-.832-2.593-.832-3.12-.014-.902-.444-2.413-.998-3.536-1.803-3.564-5.852-5.492-9.818-4.646Zm3.536 2.219c2.58.68 4.576 2.87 4.937 5.436.693 4.909 2.745 8.32 6.212 10.317.458.264.846.5.846.54 0 .043-.277.25-.624.459-.957.61-1.886 1.511-2.496 2.44-.305.458-.583.832-.624.832-.042 0-.277-.374-.54-.832-1.998-3.467-5.41-5.519-10.318-6.212-2.566-.36-4.757-2.358-5.436-4.937-1.234-4.743 3.3-9.277 8.043-8.043Zm17.75 17.75c3.55.929 5.755 4.562 4.854 8.043-.68 2.58-2.871 4.576-5.437 4.937-1.94.277-3.855.804-5.13 1.442-4.05 1.997-6.352 5.491-7.1 10.789-.36 2.565-2.358 4.756-4.937 5.435-4.743 1.235-9.277-3.3-8.043-8.043.68-2.579 2.87-4.576 5.436-4.936 5.297-.75 8.792-3.051 10.789-7.1.637-1.276 1.164-3.19 1.442-5.131.527-3.786 4.423-6.393 8.126-5.436Z"/><path d="M42.42 13.438a4.687 4.687 0 0 0-2.981 2.44c-.264.569-.333.915-.333 1.872-.014 1.082.028 1.248.458 2.052.527.971.97 1.387 2.01 1.942.597.305.888.36 1.887.36.998 0 1.29-.055 1.885-.36 1.04-.555 1.484-.97 2.011-1.942.43-.804.472-.97.458-2.052 0-.998-.056-1.29-.36-1.886-.542-1.04-.971-1.484-1.9-1.983-.902-.471-2.275-.68-3.135-.444Zm1.914 2.288c1.428.596 1.775 2.454.666 3.563-1.553 1.567-4.105.167-3.703-2.024.25-1.304 1.775-2.08 3.037-1.54ZM60.17 31.188a4.687 4.687 0 0 0-2.981 2.44c-.264.569-.333.915-.333 1.872-.014 1.082.028 1.248.458 2.053.527.97.97 1.386 2.01 1.94.597.306.888.361 1.887.361.998 0 1.29-.055 1.885-.36 1.04-.555 1.484-.97 2.011-1.941.43-.805.472-.971.458-2.053 0-.998-.056-1.29-.36-1.886-.542-1.04-.971-1.483-1.9-1.983-.902-.471-2.275-.68-3.135-.444Zm1.914 2.288c1.428.596 1.775 2.454.666 3.563-.902.902-2.177.902-3.079 0-1.72-1.705.18-4.506 2.413-3.563ZM42.42 48.938a4.687 4.687 0 0 0-2.981 2.44c-.264.569-.333.915-.333 1.872-.014 1.082.028 1.248.458 2.053.527.97.97 1.386 2.01 1.94.597.306.888.361 1.887.361.998 0 1.29-.055 1.885-.36 1.04-.555 1.484-.97 2.011-1.941.43-.805.472-.971.458-2.053 0-.998-.056-1.29-.36-1.886-.542-1.04-.971-1.483-1.9-1.983-.902-.471-2.275-.68-3.135-.444Zm1.914 2.288c1.428.596 1.775 2.454.666 3.563-.902.902-2.177.902-3.079 0-1.72-1.705.18-4.506 2.413-3.563Z"/></g></svg><svg fill="none" viewBox="0 0 24 24" id="user" xmlns="http://www.w3.org/2000/svg"><g stroke="#fff" stroke-width="1.5" stroke-linecap="round" stroke-linejoin="round"><path d="M14 15H6a4 4 0 0 0-4 4v2h16v-2a4 4 0 0 0-4-4ZM10 11a4 4 0 1 0 0-8 4 4 0 0 0 0 8Z"/></g></svg></svg>