<svg width="14" height="24" viewBox="0 0 14 24" fill="currentColor" xmlns="http://www.w3.org/2000/svg">
<path d="M9.1248 21.1004L0.699805 12.7004C0.599805 12.6004 0.529138 12.4921 0.487805 12.3754C0.445805 12.2587 0.424805 12.1337 0.424805 12.0004C0.424805 11.8671 0.445805 11.7421 0.487805 11.6254C0.529138 11.5087 0.599805 11.4004 0.699805 11.3004L9.1248 2.87539C9.35814 2.64206 9.6498 2.52539 9.9998 2.52539C10.3498 2.52539 10.6498 2.65039 10.8998 2.90039C11.1498 3.15039 11.2748 3.44206 11.2748 3.77539C11.2748 4.10872 11.1498 4.40039 10.8998 4.65039L3.5498 12.0004L10.8998 19.3504C11.1331 19.5837 11.2498 19.8711 11.2498 20.2124C11.2498 20.5544 11.1248 20.8504 10.8748 21.1004C10.6248 21.3504 10.3331 21.4754 9.9998 21.4754C9.66647 21.4754 9.3748 21.3504 9.1248 21.1004Z" fill="currentColor"/>
</svg>
