<svg width="274" height="40" viewBox="0 0 274 40" fill="none" xmlns="http://www.w3.org/2000/svg">
<path d="M7.16383 3.69531C6.80445 3.91406 6.99195 3.625 3.20289 9.72656C0.0544531 14.7891 0.0466406 14.7969 0.0153906 15.2734C-0.000234438 15.6562 0.0232031 15.7969 0.171641 16.0234C0.273203 16.1797 4.59352 20.8125 9.78102 26.3125C16.5154 33.4531 19.2888 36.3359 19.4607 36.3984C19.781 36.5078 20.2185 36.5078 20.5388 36.3984C20.7107 36.3359 23.4841 33.4531 30.2185 26.3125C35.406 20.8125 39.7263 16.1797 39.8279 16.0234C39.9763 15.7969 39.9998 15.6562 39.9841 15.2734C39.9529 14.7969 39.9451 14.7812 37.117 10.2344C32.9295 3.50781 33.1795 3.89062 32.8279 3.6875L32.5154 3.51562H19.992H7.4607L7.16383 3.69531ZM12.4998 6.26562C12.492 6.32031 12.1482 8.07031 11.7341 10.1562L10.9685 13.9453L7.35914 13.9688L3.74977 13.9844L4.12477 13.3828C4.3357 13.0469 5.42945 11.2891 6.55445 9.46875L8.60914 6.17188H10.5545C12.0623 6.17188 12.4998 6.19531 12.4998 6.26562ZM24.7185 6.30469C24.7888 6.53906 26.3279 13.7969 26.3279 13.8906C26.3279 13.9609 24.742 13.9844 20.0388 13.9844C16.5779 13.9844 13.7498 13.9609 13.7498 13.9219C13.742 13.8906 14.0857 12.1328 14.5076 10.0156L15.2732 6.17188H19.9763C24.3826 6.17188 24.6795 6.17969 24.7185 6.30469ZM33.8123 10.0547L36.2263 13.9453L32.7107 13.9688C30.7732 13.9766 29.1795 13.9688 29.156 13.9453C29.1013 13.8984 27.5076 6.50781 27.4998 6.30469C27.4998 6.17969 27.6404 6.17188 29.4451 6.17188H31.3904L33.8123 10.0547ZM13.6404 22.8906L16.0935 29.0234L15.6326 28.5547C15.1873 28.0938 5.07008 17.3438 4.69508 16.9297L4.49977 16.7188L7.84352 16.7344L11.1873 16.7578L13.6404 22.8906ZM25.906 16.8516C25.492 17.9609 20.0388 31.4062 20.0076 31.4062C19.9763 31.4062 18.6326 28.1016 17.0154 24.0625L14.0779 16.7188H20.0154C25.6404 16.7188 25.9529 16.7266 25.906 16.8516ZM35.3045 16.9297C34.9138 17.3672 24.8045 28.1016 24.3982 28.5156L23.9763 28.9453L24.1404 28.5156C24.4763 27.6484 28.8357 16.8438 28.8748 16.7812C28.8982 16.75 30.3982 16.7188 32.2029 16.7188H35.492L35.3045 16.9297Z" fill="#4C4C4C"/>
<path d="M57.598 23V8.45455H66.7173V10.3438H59.7926V14.7756H66.2415V16.6577H59.7926V21.1108H66.8026V23H57.598ZM69.6783 23V12.0909H74.2025C75.4335 12.0909 76.4089 12.3537 77.1286 12.8793C77.8483 13.4001 78.2082 14.108 78.2082 15.0028C78.2082 15.642 78.0046 16.1487 77.5974 16.5227C77.1902 16.8968 76.6504 17.1477 75.9781 17.2756C76.4657 17.3324 76.9132 17.4792 77.3204 17.7159C77.7276 17.9479 78.0543 18.2604 78.3005 18.6534C78.5514 19.0464 78.6769 19.5152 78.6769 20.0597C78.6769 20.6373 78.5278 21.1487 78.2295 21.5938C77.9312 22.0341 77.4979 22.3797 76.9298 22.6307C76.3663 22.8769 75.6869 23 74.8914 23H69.6783ZM71.6741 21.2244H74.8914C75.417 21.2244 75.8289 21.099 76.1272 20.848C76.4255 20.5971 76.5746 20.2562 76.5746 19.8253C76.5746 19.3187 76.4255 18.9209 76.1272 18.6321C75.8289 18.3385 75.417 18.1918 74.8914 18.1918H71.6741V21.2244ZM71.6741 16.6364H74.2238C74.6215 16.6364 74.9624 16.5795 75.2465 16.4659C75.5353 16.3523 75.7555 16.1913 75.907 15.983C76.0633 15.7699 76.1414 15.5189 76.1414 15.2301C76.1414 14.8087 75.9686 14.4796 75.6229 14.2429C75.2773 14.0062 74.8038 13.8878 74.2025 13.8878H71.6741V16.6364ZM81.2065 27.0909V12.0909H83.2803V13.8594H83.4579C83.581 13.6321 83.7585 13.3693 83.9906 13.071C84.2226 12.7727 84.5445 12.5123 84.9565 12.2898C85.3684 12.0625 85.9129 11.9489 86.59 11.9489C87.4707 11.9489 88.2567 12.1714 88.9479 12.6165C89.6392 13.0616 90.1814 13.7031 90.5744 14.5412C90.9721 15.3793 91.171 16.3878 91.171 17.5668C91.171 18.7457 90.9745 19.7566 90.5815 20.5994C90.1885 21.4375 89.6487 22.0838 88.9621 22.5384C88.2756 22.9882 87.492 23.2131 86.6113 23.2131C85.9484 23.2131 85.4063 23.1018 84.9849 22.8793C84.5682 22.6567 84.2415 22.3963 84.0048 22.098C83.768 21.7997 83.5857 21.5346 83.4579 21.3026H83.33V27.0909H81.2065ZM83.2874 17.5455C83.2874 18.3125 83.3987 18.9848 83.6212 19.5625C83.8438 20.1402 84.1657 20.5923 84.5871 20.919C85.0085 21.241 85.5246 21.402 86.1354 21.402C86.7699 21.402 87.3002 21.2339 87.7263 20.8977C88.1525 20.5568 88.4745 20.0952 88.6923 19.5128C88.9148 18.9304 89.0261 18.2746 89.0261 17.5455C89.0261 16.8258 88.9172 16.1795 88.6994 15.6065C88.4863 15.0336 88.1643 14.5814 87.7335 14.25C87.3073 13.9186 86.7746 13.7528 86.1354 13.7528C85.5199 13.7528 84.9991 13.9115 84.5729 14.2287C84.1515 14.5459 83.8319 14.9886 83.6141 15.5568C83.3963 16.125 83.2874 16.7879 83.2874 17.5455ZM98.3454 23.2202C97.3227 23.2202 96.4301 22.9858 95.6678 22.517C94.9055 22.0483 94.3137 21.3925 93.8923 20.5497C93.4709 19.7069 93.2602 18.7221 93.2602 17.5952C93.2602 16.4635 93.4709 15.474 93.8923 14.6264C94.3137 13.7789 94.9055 13.1207 95.6678 12.652C96.4301 12.1832 97.3227 11.9489 98.3454 11.9489C99.3681 11.9489 100.261 12.1832 101.023 12.652C101.785 13.1207 102.377 13.7789 102.799 14.6264C103.22 15.474 103.431 16.4635 103.431 17.5952C103.431 18.7221 103.22 19.7069 102.799 20.5497C102.377 21.3925 101.785 22.0483 101.023 22.517C100.261 22.9858 99.3681 23.2202 98.3454 23.2202ZM98.3525 21.4375C99.0154 21.4375 99.5646 21.2623 100 20.9119C100.436 20.5616 100.758 20.0952 100.966 19.5128C101.179 18.9304 101.286 18.2888 101.286 17.5881C101.286 16.892 101.179 16.2528 100.966 15.6705C100.758 15.0833 100.436 14.6122 100 14.2571C99.5646 13.902 99.0154 13.7244 98.3525 13.7244C97.6849 13.7244 97.1309 13.902 96.6906 14.2571C96.2549 14.6122 95.9306 15.0833 95.7175 15.6705C95.5092 16.2528 95.405 16.892 95.405 17.5881C95.405 18.2888 95.5092 18.9304 95.7175 19.5128C95.9306 20.0952 96.2549 20.5616 96.6906 20.9119C97.1309 21.2623 97.6849 21.4375 98.3525 21.4375ZM106.001 23V12.0909H114.9V23H112.819V13.9233H108.068V23H106.001ZM122.641 23.2202C121.566 23.2202 120.641 22.9905 119.864 22.5312C119.092 22.0672 118.496 21.4162 118.074 20.5781C117.658 19.7353 117.449 18.7481 117.449 17.6165C117.449 16.4991 117.658 15.5142 118.074 14.6619C118.496 13.8097 119.083 13.1444 119.836 12.6662C120.593 12.188 121.479 11.9489 122.492 11.9489C123.107 11.9489 123.704 12.0507 124.282 12.2543C124.859 12.4579 125.378 12.7775 125.837 13.2131C126.296 13.6487 126.658 14.2145 126.924 14.9105C127.189 15.6018 127.321 16.4422 127.321 17.4318V18.1847H118.65V16.5938H125.24C125.24 16.035 125.127 15.5402 124.9 15.1094C124.672 14.6738 124.353 14.3305 123.941 14.0795C123.533 13.8286 123.055 13.7031 122.506 13.7031C121.909 13.7031 121.389 13.8499 120.944 14.1435C120.503 14.4323 120.162 14.8111 119.921 15.2798C119.684 15.7438 119.566 16.2481 119.566 16.7926V18.0355C119.566 18.7647 119.694 19.3849 119.949 19.8963C120.21 20.4077 120.572 20.7983 121.036 21.0682C121.5 21.3333 122.042 21.4659 122.662 21.4659C123.065 21.4659 123.432 21.4091 123.763 21.2955C124.095 21.1771 124.381 21.0019 124.623 20.7699C124.864 20.5379 125.049 20.2514 125.176 19.9105L127.186 20.2727C127.025 20.8646 126.737 21.383 126.32 21.8281C125.908 22.2685 125.39 22.6117 124.765 22.858C124.144 23.0994 123.436 23.2202 122.641 23.2202ZM131.959 20.0241L136.767 12.0909H139.054V23H136.973V15.0597L132.186 23H129.878V12.0909H131.959V20.0241ZM135.858 8.39773H137.605C137.605 9.19792 137.321 9.84896 136.753 10.3509C136.189 10.848 135.427 11.0966 134.466 11.0966C133.509 11.0966 132.749 10.848 132.186 10.3509C131.622 9.84896 131.341 9.19792 131.341 8.39773H133.081C133.081 8.75284 133.185 9.06771 133.393 9.34233C133.602 9.61222 133.959 9.74716 134.466 9.74716C134.963 9.74716 135.318 9.61222 135.531 9.34233C135.749 9.07244 135.858 8.75758 135.858 8.39773ZM146.704 23.2202C145.648 23.2202 144.739 22.9811 143.977 22.5028C143.219 22.0199 142.637 21.3546 142.23 20.5071C141.822 19.6596 141.619 18.6889 141.619 17.5952C141.619 16.4872 141.827 15.5095 142.244 14.6619C142.66 13.8097 143.248 13.1444 144.005 12.6662C144.763 12.188 145.655 11.9489 146.683 11.9489C147.511 11.9489 148.25 12.1027 148.899 12.4105C149.547 12.7135 150.07 13.1397 150.468 13.6889C150.871 14.2382 151.11 14.8797 151.186 15.6136H149.119C149.005 15.1023 148.745 14.6619 148.338 14.2926C147.935 13.9233 147.395 13.7386 146.718 13.7386C146.126 13.7386 145.608 13.8949 145.163 14.2074C144.722 14.5152 144.379 14.9555 144.133 15.5284C143.887 16.0966 143.764 16.7689 143.764 17.5455C143.764 18.3409 143.884 19.0275 144.126 19.6051C144.367 20.1828 144.708 20.6302 145.149 20.9474C145.594 21.2647 146.117 21.4233 146.718 21.4233C147.121 21.4233 147.485 21.3499 147.812 21.2031C148.143 21.0516 148.42 20.8362 148.643 20.5568C148.87 20.2775 149.029 19.9413 149.119 19.5483H151.186C151.11 20.2538 150.88 20.8835 150.497 21.4375C150.113 21.9915 149.599 22.4271 148.955 22.7443C148.316 23.0616 147.566 23.2202 146.704 23.2202ZM153.656 23V12.0909H155.78V16.6648H156.803L160.404 12.0909H163.031L158.806 17.3963L163.081 23H160.446L157.158 18.6392H155.78V23H153.656ZM167.012 20.0241L171.82 12.0909H174.107V23H172.026V15.0597L167.239 23H164.931V12.0909H167.012V20.0241ZM181.864 23.2202C180.789 23.2202 179.863 22.9905 179.087 22.5312C178.315 22.0672 177.718 21.4162 177.297 20.5781C176.88 19.7353 176.672 18.7481 176.672 17.6165C176.672 16.4991 176.88 15.5142 177.297 14.6619C177.718 13.8097 178.305 13.1444 179.058 12.6662C179.816 12.188 180.701 11.9489 181.714 11.9489C182.33 11.9489 182.927 12.0507 183.504 12.2543C184.082 12.4579 184.6 12.7775 185.06 13.2131C185.519 13.6487 185.881 14.2145 186.146 14.9105C186.411 15.6018 186.544 16.4422 186.544 17.4318V18.1847H177.872V16.5938H184.463C184.463 16.035 184.349 15.5402 184.122 15.1094C183.895 14.6738 183.575 14.3305 183.163 14.0795C182.756 13.8286 182.278 13.7031 181.729 13.7031C181.132 13.7031 180.611 13.8499 180.166 14.1435C179.726 14.4323 179.385 14.8111 179.143 15.2798C178.907 15.7438 178.788 16.2481 178.788 16.7926V18.0355C178.788 18.7647 178.916 19.3849 179.172 19.8963C179.432 20.4077 179.795 20.7983 180.259 21.0682C180.723 21.3333 181.265 21.4659 181.885 21.4659C182.287 21.4659 182.654 21.4091 182.986 21.2955C183.317 21.1771 183.604 21.0019 183.845 20.7699C184.087 20.5379 184.271 20.2514 184.399 19.9105L186.409 20.2727C186.248 20.8646 185.959 21.383 185.543 21.8281C185.131 22.2685 184.612 22.6117 183.987 22.858C183.367 23.0994 182.659 23.2202 181.864 23.2202ZM203.009 8.02841L203.89 9.37074C203.563 9.66903 203.192 9.8821 202.775 10.0099C202.363 10.133 201.887 10.2112 201.347 10.2443C200.808 10.2727 200.19 10.2988 199.494 10.3224C198.708 10.3461 198.061 10.5166 197.555 10.8338C197.048 11.1463 196.658 11.6103 196.383 12.2259C196.113 12.8366 195.938 13.6037 195.857 14.527H195.992C196.347 13.8499 196.84 13.3433 197.47 13.0071C198.104 12.6709 198.817 12.5028 199.607 12.5028C200.488 12.5028 201.272 12.7041 201.958 13.1065C202.645 13.509 203.185 14.0985 203.578 14.875C203.975 15.6468 204.174 16.5914 204.174 17.7088C204.174 18.8404 203.966 19.8182 203.549 20.642C203.137 21.4659 202.555 22.1027 201.802 22.5526C201.054 22.9976 200.171 23.2202 199.153 23.2202C198.135 23.2202 197.247 22.9905 196.489 22.5312C195.737 22.0672 195.152 21.3807 194.735 20.4716C194.323 19.5625 194.117 18.4403 194.117 17.1051V16.0256C194.117 13.5303 194.562 11.6529 195.453 10.3935C196.343 9.134 197.673 8.48769 199.444 8.45455C200.017 8.44034 200.528 8.43797 200.978 8.44744C201.428 8.45218 201.821 8.43087 202.157 8.38352C202.498 8.33144 202.782 8.21307 203.009 8.02841ZM199.16 21.4375C199.752 21.4375 200.261 21.2884 200.687 20.9901C201.118 20.687 201.449 20.2585 201.681 19.7045C201.913 19.1506 202.029 18.4972 202.029 17.7443C202.029 17.0057 201.913 16.3783 201.681 15.8622C201.449 15.3461 201.118 14.9531 200.687 14.6832C200.256 14.4086 199.74 14.2713 199.139 14.2713C198.694 14.2713 198.296 14.3494 197.945 14.5057C197.595 14.6572 197.294 14.8821 197.043 15.1804C196.797 15.4787 196.605 15.8433 196.468 16.2741C196.336 16.7003 196.265 17.1903 196.255 17.7443C196.255 18.8712 196.513 19.7685 197.029 20.4361C197.55 21.1037 198.26 21.4375 199.16 21.4375ZM206.746 27.0909V12.0909H208.82V13.8594H208.998C209.121 13.6321 209.298 13.3693 209.53 13.071C209.762 12.7727 210.084 12.5123 210.496 12.2898C210.908 12.0625 211.453 11.9489 212.13 11.9489C213.011 11.9489 213.797 12.1714 214.488 12.6165C215.179 13.0616 215.721 13.7031 216.114 14.5412C216.512 15.3793 216.711 16.3878 216.711 17.5668C216.711 18.7457 216.514 19.7566 216.121 20.5994C215.728 21.4375 215.189 22.0838 214.502 22.5384C213.815 22.9882 213.032 23.2131 212.151 23.2131C211.488 23.2131 210.946 23.1018 210.525 22.8793C210.108 22.6567 209.781 22.3963 209.545 22.098C209.308 21.7997 209.126 21.5346 208.998 21.3026H208.87V27.0909H206.746ZM208.827 17.5455C208.827 18.3125 208.939 18.9848 209.161 19.5625C209.384 20.1402 209.706 20.5923 210.127 20.919C210.548 21.241 211.064 21.402 211.675 21.402C212.31 21.402 212.84 21.2339 213.266 20.8977C213.692 20.5568 214.014 20.0952 214.232 19.5128C214.455 18.9304 214.566 18.2746 214.566 17.5455C214.566 16.8258 214.457 16.1795 214.239 15.6065C214.026 15.0336 213.704 14.5814 213.273 14.25C212.847 13.9186 212.314 13.7528 211.675 13.7528C211.06 13.7528 210.539 13.9115 210.113 14.2287C209.691 14.5459 209.372 14.9886 209.154 15.5568C208.936 16.125 208.827 16.7879 208.827 17.5455ZM223.992 23.2202C222.917 23.2202 221.991 22.9905 221.215 22.5312C220.443 22.0672 219.846 21.4162 219.425 20.5781C219.008 19.7353 218.8 18.7481 218.8 17.6165C218.8 16.4991 219.008 15.5142 219.425 14.6619C219.846 13.8097 220.434 13.1444 221.186 12.6662C221.944 12.188 222.829 11.9489 223.843 11.9489C224.458 11.9489 225.055 12.0507 225.632 12.2543C226.21 12.4579 226.729 12.7775 227.188 13.2131C227.647 13.6487 228.009 14.2145 228.274 14.9105C228.54 15.6018 228.672 16.4422 228.672 17.4318V18.1847H220V16.5938H226.591C226.591 16.035 226.478 15.5402 226.25 15.1094C226.023 14.6738 225.703 14.3305 225.291 14.0795C224.884 13.8286 224.406 13.7031 223.857 13.7031C223.26 13.7031 222.739 13.8499 222.294 14.1435C221.854 14.4323 221.513 14.8111 221.272 15.2798C221.035 15.7438 220.916 16.2481 220.916 16.7926V18.0355C220.916 18.7647 221.044 19.3849 221.3 19.8963C221.56 20.4077 221.923 20.7983 222.387 21.0682C222.851 21.3333 223.393 21.4659 224.013 21.4659C224.416 21.4659 224.782 21.4091 225.114 21.2955C225.445 21.1771 225.732 21.0019 225.973 20.7699C226.215 20.5379 226.399 20.2514 226.527 19.9105L228.537 20.2727C228.376 20.8646 228.087 21.383 227.671 21.8281C227.259 22.2685 226.74 22.6117 226.115 22.858C225.495 23.0994 224.787 23.2202 223.992 23.2202ZM238.622 16.6293V18.4688H232.713V16.6293H238.622ZM233.309 12.0909V23H231.228V12.0909H233.309ZM240.106 12.0909V23H238.032V12.0909H240.106ZM242.082 26.1463V21.1605H242.97C243.197 20.9522 243.389 20.7036 243.545 20.4148C243.706 20.1259 243.841 19.7827 243.95 19.3849C244.063 18.9872 244.158 18.5232 244.234 17.9929C244.309 17.4579 244.376 16.8471 244.433 16.1605L244.774 12.0909H252.188V21.1605H253.864V26.1463H251.791V23H244.184V26.1463H242.082ZM245.242 21.1605H250.114V13.9091H246.677L246.45 16.1605C246.341 17.3063 246.203 18.3007 246.038 19.1435C245.872 19.9815 245.607 20.6539 245.242 21.1605ZM257.738 15.8409H260.906C262.241 15.8409 263.268 16.1723 263.988 16.8352C264.708 17.4981 265.068 18.3527 265.068 19.3991C265.068 20.081 264.907 20.6941 264.585 21.2386C264.263 21.7831 263.792 22.214 263.171 22.5312C262.551 22.8438 261.796 23 260.906 23H256.14V12.0909H258.221V21.1676H260.906C261.516 21.1676 262.018 21.009 262.411 20.6918C262.804 20.3698 263.001 19.9602 263.001 19.4631C263.001 18.9375 262.804 18.509 262.411 18.1776C262.018 17.8414 261.516 17.6733 260.906 17.6733H257.738V15.8409ZM266.616 23V12.0909H268.739V23H266.616Z" fill="white"/>
</svg>
